<?xml version="1.0" encoding="UTF-8"?>
<!DOCTYPE svg PUBLIC "-//W3C//DTD SVG 1.1//EN" "http://www.w3.org/Graphics/SVG/1.1/DTD/svg11.dtd">
<!-- Creator: CorelDRAW 2021 (64-Bit) -->
<svg xmlns="http://www.w3.org/2000/svg" xml:space="preserve" width="132.292mm" height="132.292mm" version="1.1" style="shape-rendering:geometricPrecision; text-rendering:geometricPrecision; image-rendering:optimizeQuality; fill-rule:evenodd; clip-rule:evenodd"
viewBox="0 0 13229.16 13229.16"
 xmlns:xlink="http://www.w3.org/1999/xlink"
 xmlns:xodm="http://www.corel.com/coreldraw/odm/2003">
 <defs>
  <style type="text/css">
   <![CDATA[
    .str6 {stroke:black;stroke-width:26.45;stroke-linecap:round;stroke-linejoin:round;stroke-miterlimit:22.9256}
    .str9 {stroke:#141214;stroke-width:26.45;stroke-linecap:round;stroke-linejoin:round;stroke-miterlimit:22.9256}
    .str10 {stroke:#1E1E1E;stroke-width:26.45;stroke-linecap:round;stroke-linejoin:round;stroke-miterlimit:22.9256}
    .str7 {stroke:#990099;stroke-width:26.45;stroke-linecap:round;stroke-linejoin:round;stroke-miterlimit:22.9256}
    .str3 {stroke:#E9CBE9;stroke-width:26.45;stroke-linecap:round;stroke-linejoin:round;stroke-miterlimit:22.9256}
    .str4 {stroke:white;stroke-width:26.45;stroke-linecap:round;stroke-linejoin:round;stroke-miterlimit:22.9256}
    .str13 {stroke:#E9CBE9;stroke-width:26.46;stroke-linecap:round;stroke-linejoin:round;stroke-miterlimit:22.9256}
    .str2 {stroke:#E9CBE9;stroke-width:105.83;stroke-linecap:round;stroke-linejoin:round;stroke-miterlimit:22.9256}
    .str8 {stroke:#1E1E1E;stroke-width:70.56;stroke-linecap:round;stroke-linejoin:round;stroke-miterlimit:22.9256}
    .str0 {stroke:#E9CBE9;stroke-width:52.92;stroke-linecap:round;stroke-linejoin:round;stroke-miterlimit:22.9256}
    .str1 {stroke:#E9CBE9;stroke-width:35.28;stroke-linecap:round;stroke-linejoin:round;stroke-miterlimit:22.9256}
    .str12 {stroke:#E9CBE9;stroke-width:17.64;stroke-linecap:round;stroke-linejoin:round;stroke-miterlimit:22.9256}
    .str5 {stroke:black;stroke-width:7.62;stroke-linecap:round;stroke-linejoin:round;stroke-miterlimit:22.9256}
    .str11 {stroke:#141214;stroke-width:7.62;stroke-linecap:round;stroke-linejoin:round;stroke-miterlimit:22.9256}
    .fil2 {fill:none}
    .fil11 {fill:black}
    .fil5 {fill:black}
    .fil10 {fill:#121212}
    .fil8 {fill:#121212}
    .fil9 {fill:#171214}
    .fil7 {fill:#19000D}
    .fil0 {fill:#351424}
    .fil3 {fill:#856785}
    .fil6 {fill:#E9CBE9}
    .fil4 {fill:white}
    .fil1 {fill:#E9CBE9;fill-rule:nonzero}
   ]]>
  </style>
 </defs>
 <g id="Layer_x0020_1">
  <metadata id="CorelCorpID_0Corel-Layer"/>
  <path class="fil0 str0" d="M9477.2 3728.71c276.08,-285.08 552.16,-570.16 828.24,-855.24 114.03,114.03 228.06,228.07 342.09,342.1 114.03,-105.03 228.07,-210.06 342.1,-315.09 -201.06,-213.06 -402.11,-426.13 -603.17,-639.19 333.09,-375.1 666.19,-750.21 999.28,-1125.31 66.02,-12 132.04,-24.01 199.56,-60.02 67.52,-36.01 136.54,-96.03 178.55,-165.05 42.01,-69.02 57.02,-147.04 57.02,-222.06 0,-75.02 -15.01,-147.04 -48.02,-204.05 -33.01,-57.02 -84.02,-99.04 -141.04,-126.04 -57.02,-27.01 -120.03,-39.02 -183.05,-40.52 -63.02,-1.5 -126.03,7.51 -178.54,30.02 -52.52,22.5 -94.54,58.51 -127.55,102.02 -33.01,43.51 -57.01,94.53 -73.51,142.54 -16.51,48.01 -25.52,93.03 -30.02,130.54 -4.5,37.51 -4.5,67.52 -4.5,97.53 -372.1,318.09 -744.21,636.18 -1116.31,954.27 -204.06,-201.06 -408.12,-402.11 -612.18,-603.17 -108.03,111.03 -216.06,222.06 -324.09,333.09 99.03,96.03 198.06,192.05 297.09,288.08 -111.03,108.03 -222.07,216.06 -333.1,324.09 177.05,537.15 354.1,1074.31 531.15,1611.46z"/>
  <path class="fil0 str1" d="M9391.8 2827.32c144.19,-142.49 288.39,-284.97 432.58,-427.46 157.85,150.17 315.69,300.33 473.54,450.5 -268.76,279 -537.53,558.01 -675.32,693.67 -137.8,135.66 -144.62,127.98 -148.03,109.21 -3.42,-18.77 -3.42,-48.63 -2.14,-89.15 1.28,-40.53 3.84,-91.73 1.71,-148.47 -2.14,-56.74 -8.96,-119.02 -14.93,-174.91 -5.98,-55.89 -11.1,-105.37 -17.92,-154.43 -6.83,-49.06 -15.36,-97.7 -23.89,-140.78 -8.53,-43.09 -17.07,-80.64 -25.6,-118.18z"/>
  <path class="fil1 str2" d="M6527.43 10391.21c-221.07,-9.02 -433.16,-150.84 -681.61,-316.95 -43.46,-29.05 -88.16,-58.94 -134.75,-89.3 -218.32,-142.24 -471.91,-289.84 -712.9,-430.08 -54.93,-31.96 -111.04,-64.64 -216.45,-126.64 -157.19,-92.46 -295.56,-175.86 -416.16,-249.71 -121.87,-74.62 -235.06,-145.24 -332.93,-206.71 -80.08,-50.28 -161.55,-101.98 -243.65,-154.33 -136.89,-87.3 -166.41,-106.27 -194.03,-124.03 -19.51,-12.53 -34.9,-29.06 -45.77,-47.84 -131.23,-201.21 -262.38,-402.55 -383.62,-613.62 -103.71,-180.54 -196.69,-362.64 -277.09,-520.1l-39.3 -76.86 -105.72 -203.11c-33.48,-64.32 -62.49,-120.08 -106.51,-208.1 -27.9,-55.8 -51.23,-104.79 -70,-149.38 -20.94,-49.76 -36.58,-93.96 -46.85,-135.04 -11.04,-44.17 -16.61,-86.37 -18.74,-126.23 -2.12,-39.6 -0.91,-74.03 1.65,-104.74 2.76,-33.2 7.17,-64.57 17.09,-101.97 9.33,-35.21 23.12,-72.76 44.65,-118.5l3.81 -7.48c18.31,-38.22 41.09,-80.87 66.5,-125.49 31.63,-55.58 66.11,-112.85 100.57,-168 27.82,-44.52 58.75,-92.6 90.12,-141.38 35.56,-55.28 71.88,-111.75 116.58,-184.39 35.5,-57.69 70,-115.77 101.97,-173.64 34.79,-62.96 67.88,-126.77 98.12,-191.27 31.97,-68.21 62.85,-140.6 93.15,-216.62 30.93,-77.61 61.25,-158.8 91.51,-243.09 25.92,-72.22 57.39,-163.55 90.95,-262.38 51.05,-150.37 69.98,-207.16 88.75,-263.48 25.36,-76.11 49.76,-149.27 78.81,-242.53 23.32,-74.85 42.39,-141.11 54.02,-193.48 15.71,-70.73 21.04,-132.2 27.01,-201.21 2.33,-26.91 4.77,-55.05 9.92,-101.4 9.5,-85.56 23.86,-180.49 38.89,-279.98 9.27,-61.35 18.7,-123.68 23.4,-156.59l5.04 -35.01c20.98,-148.85 41.98,-297.73 111.83,-498.56 36.53,-105.04 86.82,-223.97 145.16,-345.39 58.75,-122.27 125.13,-246.05 193.27,-359.62 69.89,-116.5 140.76,-221.84 213.33,-319.16 71.57,-95.99 148.38,-188.61 230.41,-280.01 78.48,-87.44 158.77,-170.24 238.49,-247.04 84.46,-81.36 171.28,-158.85 257.04,-230.31 84.25,-70.22 164.37,-132.13 242.54,-187.41 79.96,-56.54 160.61,-108.35 244.19,-157.1 84.83,-49.48 173.32,-95.87 264.44,-137.36 87.09,-39.66 173.45,-73.67 257.56,-100.22 88.01,-27.79 178.09,-49.03 268.34,-63.66 91.78,-14.87 180.25,-22.32 263.58,-22.32 82.37,0 163.67,7.44 243.64,19.83 78.14,12.12 150.89,28.45 219.94,46.86 71.3,19.01 139.53,40.15 206.7,65.04 66.74,24.73 135.3,54.42 208.36,90.95 69.31,34.66 140.25,74.6 208.97,117.06 71.83,44.38 141.4,91.46 204.44,138.16 62.47,46.26 119.47,92.82 171.43,138.36 55.64,48.75 101.42,92.04 140.02,130.64 38.94,38.94 76.13,78.55 111.89,117.95 28.63,31.55 61.13,68.89 93.15,105.84 32.73,37.76 62.36,72.09 84.34,98.11 21.8,25.81 47.93,57.57 82.13,100.33 28.97,36.21 57.16,72.53 82.97,108.22l0.26 -0.19c27.24,37.67 54.52,78.1 81.58,122.37 26.1,42.71 50.83,87.43 77.72,139.46 26.09,50.49 54.13,107.67 87.65,176.94 32.56,67.3 70.92,147.36 111.34,237.56 38.88,86.8 77.6,179.15 110.25,270.11 33.16,92.41 58.79,179.48 79.37,262.93 21.09,85.56 37.16,166.8 50.71,245.84 24.38,142.2 40.92,275.45 56.64,402.17l6.2 49.82c11.44,91.51 20.45,162.1 26.46,206.71 7.63,56.57 17.44,125.73 30.32,213.33 10.66,72.56 22.52,150.01 36.38,228.2 13.85,78.12 28.59,151.57 44.09,211.65 27.83,107.83 63.42,199.35 99.88,293.13 3.47,8.94 -8.23,-21.21 18.63,48.63 23.19,60.3 40.16,105.83 57.38,152.09 22.9,61.51 46.4,124.58 79.33,208.41 22.63,57.61 47.4,117.77 75.51,183 30.49,70.74 59.65,135.88 88.2,196.79 31.72,67.68 68.81,143.85 110.41,226.27 38.35,75.97 77.17,150.46 115.03,220.21 42.63,78.53 84.8,153.21 124.58,222.14 27.47,47.63 72.63,124.01 115.76,196.78l6.26 10.56c71.24,120.21 124.7,210.38 155.78,303.64 17.73,53.19 26.61,103.88 28.12,154.89 1.45,49.5 -4.17,98.1 -15.44,148.82 -10.6,47.7 -25.7,95.93 -43.54,143.32 -17.51,46.5 -37.75,92.97 -58.98,137.8 -17.48,36.91 -35.99,73.35 -54.23,109.28 -24.16,47.58 -47.93,94.39 -63.73,129.94 -9.01,20.29 -22.45,53.72 -36.12,87.78 -20.48,50.99 -41.51,103.33 -72.46,165.24 -28.88,57.75 -59.61,110.69 -91.96,166.4 -23.85,41.08 -48.65,83.8 -72.86,128.5 -32.12,59.3 -57.12,109.29 -81.57,158.2 -28.09,56.18 -55.63,111.25 -82.14,159.85 -46.23,84.77 -86.98,148.93 -123.62,206.61l-30.17 47.5 -12.94 20.8 -4.86 7.29c-42.95,69.18 -82.01,130.31 -147.56,185.79 -53.58,45.34 -114.33,77.43 -174.72,109.32 -16.42,8.67 -32.88,17.38 -54.59,29.58 -46.03,25.89 -88.6,54.19 -134.22,84.5 -16.01,10.64 -32.31,21.48 -65.31,42.83 -41.54,26.87 -91.71,57.88 -142.94,89.53 -30.26,18.7 -60.77,37.55 -105.67,65.91 -47.5,29.99 -86.32,55.11 -120.71,77.73 -21.3,14 -69.68,46.26 -118.51,78.82l-0.26 0.17 0.26 0.38 -120.72 79.38c-46.16,30.34 -89.05,58.23 -125.13,81.02 -41.2,26.01 -85.06,52.97 -132.84,81.03 -45.27,26.6 -92.39,53.02 -141.66,78.82 -55.99,29.32 -81.68,42.1 -110.28,56.32 -66.95,33.3 -144.99,72.11 -240.85,123.92 -90.23,48.77 -200.66,111.04 -316.2,181.89 -92.71,56.84 -186.77,117.67 -273.6,179.17 -23.84,16.89 -54.17,38.97 -84.31,60.91 -199.61,145.32 -389.1,283.26 -623.99,273.68zm-525.07 -550.67c212.82,142.29 394.5,263.78 536.09,269.55 138.13,5.63 288.85,-104.08 447.61,-219.66 26.62,-19.38 53.57,-39 87.61,-63.11 98.64,-69.87 196.85,-133.67 289.04,-190.19 121.6,-74.56 236.3,-139.27 329.42,-189.61 109.35,-59.1 184.26,-96.35 248.57,-128.34 48.86,-24.3 93.16,-46.34 105.88,-53 43.32,-22.69 86.62,-47.01 129.52,-72.22 40.39,-23.72 82.55,-49.71 125.14,-76.61 47.68,-30.11 86.4,-55.17 120.71,-77.72 40.23,-26.45 39.15,-26.47 118.52,-79.38l0.25 0.38c30.43,-20.28 61.46,-40.98 120.46,-79.75 46.06,-30.29 88.85,-58.12 125.13,-81.03 25.56,-16.14 67.15,-41.84 107.87,-67.01 46.51,-28.74 92.1,-56.91 137.42,-86.23 11.77,-7.61 37.89,-24.98 63.11,-41.73 51.18,-34.01 98.94,-65.75 151.86,-95.52 16.02,-9 38.57,-20.92 61.21,-32.88 46.66,-24.64 93.6,-49.44 124,-75.16 33.51,-28.36 60.52,-70.68 90.55,-119.04 1.43,-2.65 2.93,-5.28 4.55,-7.88l12.94 -20.8c19.16,-30.66 25.12,-40.04 31.27,-49.72 37.31,-58.75 78.81,-124.07 114.8,-190.07 26.4,-48.39 51.8,-99.19 77.72,-151.03 29.54,-59.11 59.69,-119.4 84.89,-165.92 25.36,-46.82 51.81,-92.38 77.26,-136.22 32.36,-55.73 63.08,-108.64 84.24,-150.96 23.28,-46.57 43.17,-96.07 62.54,-144.3 11.26,-28.05 22.41,-55.77 40.54,-96.58 24.41,-54.94 46.63,-98.66 69.23,-143.18 17.03,-33.54 34.31,-67.55 50.93,-102.66 18.43,-38.93 35.71,-78.49 50.16,-116.86 14.1,-37.47 25.49,-73.09 32.52,-104.74 6.36,-28.63 9.56,-55.03 8.82,-80.46 -0.7,-23.92 -5.06,-48.25 -13.78,-74.41 -20.24,-60.75 -67.96,-141.24 -131.54,-248.52l-6.26 -10.56c-27.42,-46.28 -61.67,-104.43 -116.86,-200.1 -42.91,-74.35 -86.74,-151.84 -127.88,-227.64 -43,-79.21 -83.04,-155.81 -119.45,-227.93 -38.55,-76.37 -77.01,-155.69 -113.71,-233.99 -37.59,-80.19 -67.98,-147.38 -92.6,-204.51 -26.99,-62.62 -52.97,-125.97 -78.83,-191.82 -22.66,-57.68 -51.88,-136.14 -80.43,-212.81 -21.11,-56.69 -41.83,-112.32 -56.28,-149.89 -14.42,-37.51 -2.77,-6.74 -18.63,-47.53 -38.98,-100.25 -77.02,-198.08 -109.8,-325.09 -19.76,-76.6 -35.91,-155.32 -49.61,-232.61 -13.69,-77.22 -26.11,-158.58 -37.48,-235.92 -9.16,-62.31 -19.22,-134.3 -30.32,-216.63 -12.71,-94.27 -21.37,-160.44 -27.56,-210.01l-6.2 -49.82c-15.63,-126.04 -32.09,-258.55 -54.44,-388.95 -12.9,-75.28 -27.71,-150.61 -46.29,-226 -19.11,-77.49 -42.01,-155.82 -70.55,-235.37 -29.08,-81 -65.37,-167.3 -102.53,-250.25 -35.64,-79.53 -74.47,-160.48 -108.04,-229.86 -32.63,-67.42 -59.74,-122.73 -84.33,-170.32 -23.81,-46.06 -45.41,-85.19 -67.8,-121.82 -21.45,-35.1 -44.89,-69.66 -69.46,-103.63l0.26 -0.19 -0.26 -0.36c-25.9,-35.83 -50.57,-67.77 -74.41,-97.56 -18.71,-23.39 -45.53,-55.6 -77.73,-93.71 -32.02,-37.91 -57.55,-67.55 -82.12,-95.91 -25.31,-29.2 -52.36,-60.23 -88.75,-100.32 -29.27,-32.25 -62.66,-67.62 -103.07,-108.03 -40.77,-40.77 -83.22,-81.32 -125.68,-118.52 -46.15,-40.45 -97.21,-82.12 -153.79,-124.02 -57.92,-42.91 -120.76,-85.49 -184.6,-124.94 -62.6,-38.68 -126.12,-74.51 -186.93,-104.92 -59.22,-29.61 -118.57,-55.07 -179.7,-77.73 -60.69,-22.49 -120.39,-41.07 -181.34,-57.32 -63.23,-16.86 -127.21,-31.41 -191.28,-41.34 -62.22,-9.64 -128.67,-15.43 -200.64,-15.43 -72.11,0 -145.8,5.98 -219.48,17.92 -72.87,11.82 -149.2,30.1 -227.56,54.84 -77.59,24.49 -152.97,53.91 -225.58,86.98 -80.17,36.5 -160.73,78.89 -240.18,125.24 -75.16,43.84 -148.88,91.27 -223.25,143.86 -76.15,53.85 -150.43,111.02 -224.9,173.09 -77.76,64.79 -159.21,137.68 -241.62,217.07 -77.34,74.5 -152.96,152.3 -224.15,231.62 -72.29,80.55 -143.25,166.56 -213.87,261.27 -69.63,93.38 -135.51,190.92 -197.89,294.9 -64.84,108.07 -127.04,223.84 -181.15,336.46 -53.32,110.98 -99.41,220.03 -133.04,316.73 -60.4,173.64 -79.5,309.1 -98.59,444.54l-5.04 36.11c-10.33,72.36 -16.98,116.36 -23.4,158.81 -15.28,101.12 -29.87,197.59 -37.79,268.94 -2.74,24.69 -5.86,60.59 -8.82,94.8 -6.46,74.72 -12.23,141.27 -33.63,237.59 -14.81,66.67 -35.45,139.35 -59.52,216.62 -18.33,58.84 -49.08,151.09 -81.03,246.95 -38.55,115.65 -79.18,237.48 -88.75,265.68 -27.07,79.72 -57.36,167.04 -93.15,266.78 -31.47,87.67 -62.91,171.87 -94.81,251.91 -32.53,81.61 -65.61,159.17 -99.77,232.06 -35.9,76.57 -71.19,145.11 -105.84,207.81 -37.46,67.8 -73.54,128.81 -108.59,185.76 -34.62,56.25 -77.67,123.19 -119.88,188.81 -29.15,45.34 -57.85,89.93 -87.92,138.06 -35.34,56.56 -68.28,111.04 -95.05,158.08 -23.33,40.97 -43.1,77.69 -57.3,107.2l-3.09 7.03c-13.75,29.21 -22.03,51.21 -27.01,70 -4.4,16.6 -6.64,33.76 -8.27,53.47 -1.85,22.2 -2.83,45.12 -1.65,67.24 1.16,21.86 4.43,45.84 11.02,72.21 7.36,29.46 18.2,60.25 32.51,94.26 16.49,39.17 37.29,82.83 62.3,132.84 15.47,30.94 57.1,110.92 105.39,203.7 13.85,26.61 29.58,56.84 105.72,205.31l39.3 76.86c79.06,154.84 170.48,333.89 270.49,507.98 110.77,192.84 236.57,386.7 362.99,580.57l167.83 107.9c57.89,36.91 133.01,84.46 242.53,153.23 91.72,57.6 201.27,125.91 329.63,204.51 129.62,79.37 269.1,163.58 411.76,247.49 34.54,20.31 123.21,71.92 215.35,125.54 242.21,140.96 497.11,289.31 725.02,437.8 46.97,30.61 93.16,61.48 138.05,91.5z"/>
  <path class="fil0" d="M6002.36 9840.54c212.82,142.29 394.5,263.78 536.09,269.55 138.13,5.63 288.85,-104.08 447.61,-219.66 26.62,-19.38 53.57,-39 87.61,-63.11 98.64,-69.87 196.85,-133.67 289.04,-190.19 121.6,-74.56 236.3,-139.27 329.42,-189.61 109.35,-59.1 184.26,-96.35 248.57,-128.34 48.86,-24.3 93.16,-46.34 105.88,-53 43.32,-22.69 86.62,-47.01 129.52,-72.22 40.39,-23.72 82.55,-49.71 125.14,-76.61 47.68,-30.11 86.4,-55.17 120.71,-77.72 40.23,-26.45 39.15,-26.47 118.52,-79.38l0.25 0.38c30.43,-20.28 61.46,-40.98 120.46,-79.75 46.06,-30.29 88.85,-58.12 125.13,-81.03 25.56,-16.14 67.15,-41.84 107.87,-67.01 46.51,-28.74 92.1,-56.91 137.42,-86.23 11.77,-7.61 37.89,-24.98 63.11,-41.73 51.18,-34.01 98.94,-65.75 151.86,-95.52 16.02,-9 38.57,-20.92 61.21,-32.88 46.66,-24.64 93.6,-49.44 124,-75.16 33.51,-28.36 60.52,-70.68 90.55,-119.04 1.43,-2.65 2.93,-5.28 4.55,-7.88l12.94 -20.8c19.16,-30.66 25.12,-40.04 31.27,-49.72 37.31,-58.75 78.81,-124.07 114.8,-190.07 26.4,-48.39 51.8,-99.19 77.72,-151.03 29.54,-59.11 59.69,-119.4 84.89,-165.92 25.36,-46.82 51.81,-92.38 77.26,-136.22 32.36,-55.73 63.08,-108.64 84.24,-150.96 23.28,-46.57 43.17,-96.07 62.54,-144.3 11.26,-28.05 22.41,-55.77 40.54,-96.58 24.41,-54.94 46.63,-98.66 69.23,-143.18 17.03,-33.54 34.31,-67.55 50.93,-102.66 18.43,-38.93 35.71,-78.49 50.16,-116.86 14.1,-37.47 25.49,-73.09 32.52,-104.74 6.36,-28.63 9.56,-55.03 8.82,-80.46 -0.7,-23.92 -5.06,-48.25 -13.78,-74.41 -20.24,-60.75 -67.96,-141.24 -131.54,-248.52l-6.26 -10.56c-27.42,-46.28 -61.67,-104.43 -116.86,-200.1 -42.91,-74.35 -86.74,-151.84 -127.88,-227.64 -43,-79.21 -83.04,-155.81 -119.45,-227.93 -38.55,-76.37 -77.01,-155.69 -113.71,-233.99 -37.59,-80.19 -67.98,-147.38 -92.6,-204.51 -26.99,-62.62 -52.97,-125.97 -78.83,-191.82 -22.66,-57.68 -51.88,-136.14 -80.43,-212.81 -21.11,-56.69 -41.83,-112.32 -56.28,-149.89 -14.42,-37.51 -2.77,-6.74 -18.63,-47.53 -38.98,-100.25 -77.02,-198.08 -109.8,-325.09 -19.76,-76.6 -35.91,-155.32 -49.61,-232.61 -13.69,-77.22 -26.11,-158.58 -37.48,-235.92 -9.16,-62.31 -19.22,-134.3 -30.32,-216.63 -12.71,-94.27 -21.37,-160.44 -27.56,-210.01l-6.2 -49.82c-15.63,-126.04 -32.09,-258.55 -54.44,-388.95 -12.9,-75.28 -27.71,-150.61 -46.29,-226 -19.11,-77.49 -42.01,-155.82 -70.55,-235.37 -29.08,-81 -65.37,-167.3 -102.53,-250.25 -35.64,-79.53 -74.47,-160.48 -108.04,-229.86 -32.63,-67.42 -59.74,-122.73 -84.33,-170.32 -23.81,-46.06 -45.41,-85.19 -67.8,-121.82 -21.45,-35.1 -44.89,-69.66 -69.46,-103.63l0.26 -0.19 -0.26 -0.36c-25.9,-35.83 -50.57,-67.77 -74.41,-97.56 -18.71,-23.39 -45.53,-55.6 -77.73,-93.71 -32.02,-37.91 -57.55,-67.55 -82.12,-95.91 -25.31,-29.2 -52.36,-60.23 -88.75,-100.32 -29.27,-32.25 -62.66,-67.62 -103.07,-108.03 -40.77,-40.77 -83.22,-81.32 -125.68,-118.52 -46.15,-40.45 -97.21,-82.12 -153.79,-124.02 -57.92,-42.91 -120.76,-85.49 -184.6,-124.94 -62.6,-38.68 -126.12,-74.51 -186.93,-104.92 -59.22,-29.61 -118.57,-55.07 -179.7,-77.73 -60.69,-22.49 -120.39,-41.07 -181.34,-57.32 -63.23,-16.86 -127.21,-31.41 -191.28,-41.34 -62.22,-9.64 -128.67,-15.43 -200.64,-15.43 -72.11,0 -145.8,5.98 -219.48,17.92 -72.87,11.82 -149.2,30.1 -227.56,54.84 -77.59,24.49 -152.97,53.91 -225.58,86.98 -80.17,36.5 -160.73,78.89 -240.18,125.24 -75.16,43.84 -148.88,91.27 -223.25,143.86 -76.15,53.85 -150.43,111.02 -224.9,173.09 -77.76,64.79 -159.21,137.68 -241.62,217.07 -77.34,74.5 -152.96,152.3 -224.15,231.62 -72.29,80.55 -143.25,166.56 -213.87,261.27 -69.63,93.38 -135.51,190.92 -197.89,294.9 -64.84,108.07 -127.04,223.84 -181.15,336.46 -53.32,110.98 -99.41,220.03 -133.04,316.73 -60.4,173.64 -79.5,309.1 -98.59,444.54l-5.04 36.11c-10.33,72.36 -16.98,116.36 -23.4,158.81 -15.28,101.12 -29.87,197.59 -37.79,268.94 -2.74,24.69 -5.86,60.59 -8.82,94.8 -6.46,74.72 -12.23,141.27 -33.63,237.59 -14.81,66.67 -35.45,139.35 -59.52,216.62 -18.33,58.84 -49.08,151.09 -81.03,246.95 -38.55,115.65 -79.18,237.48 -88.75,265.68 -27.07,79.72 -57.36,167.04 -93.15,266.78 -31.47,87.67 -62.91,171.87 -94.81,251.91 -32.53,81.61 -65.61,159.17 -99.77,232.06 -35.9,76.57 -71.19,145.11 -105.84,207.81 -37.46,67.8 -73.54,128.81 -108.59,185.76 -34.62,56.25 -77.67,123.19 -119.88,188.81 -29.15,45.34 -57.85,89.93 -87.92,138.06 -35.34,56.56 -68.28,111.04 -95.05,158.08 -23.33,40.97 -43.1,77.69 -57.3,107.2l-3.09 7.03c-13.75,29.21 -22.03,51.21 -27.01,70 -4.4,16.6 -6.64,33.76 -8.27,53.47 -1.85,22.2 -2.83,45.12 -1.65,67.24 1.16,21.86 4.43,45.84 11.02,72.21 7.36,29.46 18.2,60.25 32.51,94.26 16.49,39.17 37.29,82.83 62.3,132.84 15.47,30.94 57.1,110.92 105.39,203.7 13.85,26.61 29.58,56.84 105.72,205.31l39.3 76.86c79.06,154.84 170.48,333.89 270.49,507.98 110.77,192.84 236.57,386.7 362.99,580.57l167.83 107.9c57.89,36.91 133.01,84.46 242.53,153.23 91.72,57.6 201.27,125.91 329.63,204.51 129.62,79.37 269.1,163.58 411.76,247.49 34.54,20.31 123.21,71.92 215.35,125.54 242.21,140.96 497.11,289.31 725.02,437.8 46.97,30.61 93.16,61.48 138.05,91.5z"/>
  <path class="fil2 str0" d="M4338.63 7773.24c38.45,85.94 76.89,171.89 122.13,265.74 45.23,93.86 97.24,195.64 143.61,278.19 46.36,82.55 87.07,145.87 137.96,215.98 50.88,70.11 111.95,147.01 200.15,223.9 88.2,76.9 203.55,153.79 325.68,238.6 122.12,84.82 251.04,177.54 457.98,338.11 206.93,160.58 491.9,389.01 642.3,511.13 150.39,122.13 166.22,137.96 185.45,140.22 19.22,2.26 41.83,-9.04 76.89,-33.92 35.05,-24.88 82.55,-63.33 169.62,-123.27 87.07,-59.93 213.73,-141.34 349.43,-231.81 135.69,-90.46 280.44,-189.98 382.21,-257.83 101.77,-67.84 160.57,-104.03 235.21,-153.79 74.63,-49.75 165.09,-113.07 239.73,-165.09 74.63,-52.02 133.44,-92.73 200.16,-139.1 66.71,-46.36 141.35,-98.37 213.72,-156.05 72.37,-57.67 142.48,-120.99 203.55,-186.58 61.06,-65.59 113.07,-133.43 173.01,-229.55 59.93,-96.12 127.77,-220.51 195.62,-344.9"/>
  <path class="fil2 str3" d="M4249.53 7549.23c-51.6,-110.08 -103.2,-220.15 -146.2,-323.35 -43,-103.2 -77.39,-199.51 -111.79,-304.43 -34.4,-104.91 -68.8,-218.43 -94.6,-331.95 -25.8,-113.51 -43,-227.02 -51.6,-333.66 -8.6,-106.64 -8.6,-206.39 -10.32,-304.43 -1.72,-98.04 -5.15,-194.35 5.17,-288.95 10.32,-94.6 34.39,-187.47 63.63,-283.78 29.24,-96.32 63.64,-196.08 103.2,-302.71 39.56,-106.64 84.27,-220.15 135.87,-337.11 51.6,-116.96 110.08,-237.35 168.56,-357.74 58.48,-120.4 116.95,-240.8 182.31,-361.19 65.36,-120.4 137.59,-240.79 202.95,-349.15 65.36,-108.36 123.83,-204.67 214.99,-335.38 91.16,-130.72 214.99,-295.84 340.55,-469.55 125.55,-173.71 252.83,-356.03 356.03,-503.94 103.19,-147.91 182.31,-261.43 276.91,-369.78 94.59,-108.36 204.67,-211.55 314.75,-290.67 110.07,-79.12 220.14,-134.15 309.58,-175.43 89.44,-41.28 158.23,-68.8 242.51,-75.68 84.28,-6.88 184.03,6.88 275.19,60.2 91.16,53.32 173.71,146.19 261.43,254.55 87.72,108.35 180.59,232.19 278.63,359.47 98.04,127.27 201.23,257.98 304.43,380.1 103.19,122.11 206.39,235.63 319.91,368.07 113.51,132.43 237.34,283.78 343.98,419.66 106.64,135.87 196.07,256.27 275.19,395.58 79.12,139.31 147.91,297.55 225.31,472.98 77.4,175.43 163.39,368.07 227.03,521.15 63.64,153.07 104.92,266.58 139.32,400.74 34.4,134.15 61.91,288.95 61.91,500.5 0,211.55 -27.51,479.86 -94.59,813.52 -67.08,333.67 -173.71,732.7 -280.35,1131.72"/>
  <path class="fil3 str3" d="M6058.6 2925.46c-64.32,40.38 -163.04,130.12 -246.79,222.85 -83.76,92.73 -152.56,188.46 -227.34,290.17 -74.79,101.7 -155.55,209.39 -225.85,297.64 -70.3,88.24 -130.12,157.04 -210.89,270.71 -80.77,113.67 -182.47,272.21 -260.24,388.88 -77.78,116.66 -131.63,191.44 -172.01,239.31 -40.38,47.86 -67.31,68.79 -73.29,95.72 -5.98,26.92 8.97,59.82 23.93,104.7 14.96,44.87 29.91,101.7 26.92,119.65 -2.99,17.95 -23.93,-2.99 -37.39,-22.43 -13.46,-19.45 -19.45,-37.4 -29.92,-55.35 -10.47,-17.95 -25.42,-35.89 -32.9,-40.38 -7.48,-4.49 -7.48,4.49 -1.49,37.4 5.98,32.9 17.94,89.73 31.41,145.07 13.46,55.34 28.41,109.19 25.42,177.99 -2.99,68.8 -23.93,152.55 -29.91,233.32 -5.99,80.77 2.99,158.54 29.91,221.36 26.92,62.82 71.79,110.68 124.14,140.6 52.35,29.91 112.18,41.87 175,47.86 62.82,5.98 128.62,5.98 191.44,10.47 62.82,4.48 122.65,13.46 179.49,26.92 56.83,13.46 110.68,31.41 142.09,73.29 31.4,41.88 40.38,107.69 52.35,177.98 11.96,70.3 26.91,145.09 40.38,255.77 13.46,110.68 25.42,257.25 31.41,442.71 5.98,185.47 5.98,409.82 2.99,547.42 -2.99,137.6 -8.98,188.46 -14.96,239.31 83.76,59.83 167.51,119.65 248.28,177.98 80.77,58.34 158.54,115.17 228.84,164.53 70.3,49.36 133.11,91.23 174.99,112.17 41.88,20.94 62.82,20.94 103.21,20.94 40.38,0 100.2,0 166.01,1.49 65.81,1.5 137.61,4.5 180.99,1.5 43.37,-2.99 58.32,-11.96 85.25,-26.92 26.92,-14.96 65.8,-35.89 115.16,-58.33 49.36,-22.43 109.18,-46.37 176.49,-76.29 67.31,-29.91 142.09,-65.8 192.95,-89.73 50.85,-23.93 77.77,-35.9 107.69,-55.34 29.91,-19.44 62.81,-46.37 86.75,-74.79 23.93,-28.41 38.88,-58.33 50.85,-85.25 11.96,-26.92 20.94,-50.85 25.43,-80.77 4.48,-29.91 4.48,-65.8 -1.5,-119.65 -5.99,-53.84 -17.95,-125.64 -25.43,-209.4 -7.48,-83.75 -10.47,-179.48 -11.96,-282.68 -1.5,-103.2 -1.5,-213.88 2.99,-306.61 4.48,-92.73 13.46,-167.52 20.94,-218.37 7.47,-50.85 13.46,-77.77 8.97,-98.71 -4.49,-20.94 -19.44,-35.89 -31.4,-52.35 -11.97,-16.45 -20.95,-34.4 -16.46,-56.84 4.49,-22.43 22.43,-49.35 49.36,-74.78 26.92,-25.42 62.81,-49.36 100.21,-71.8 37.39,-22.43 76.27,-43.37 125.63,-62.82 49.36,-19.44 109.18,-37.38 169.01,-46.36 59.83,-8.97 119.65,-8.97 166.02,-5.98 46.37,2.99 79.27,8.98 112.18,4.49 32.9,-4.49 65.81,-19.44 103.2,-47.86 37.39,-28.42 79.27,-70.3 113.67,-103.2 34.4,-32.91 61.33,-56.84 77.78,-95.72 16.45,-38.89 22.43,-92.74 17.94,-154.06 -4.49,-61.32 -19.44,-130.13 -29.91,-180.98 -10.47,-50.85 -16.45,-83.76 -22.43,-112.17 -5.98,-28.42 -11.97,-52.35 -14.96,-82.26 -2.99,-29.92 -2.99,-65.81 1.5,-88.24 4.48,-22.44 13.46,-31.42 34.4,-41.89 20.93,-10.47 53.84,-22.43 79.27,-41.87 25.42,-19.45 43.37,-46.38 56.83,-83.77 13.46,-37.39 22.44,-85.25 28.42,-121.14 5.98,-35.9 8.98,-59.83 10.48,-91.24 1.49,-31.41 1.49,-70.3 2.99,-109.19 1.49,-38.89 4.48,-77.77 -0.01,-106.19 -4.49,-28.42 -16.45,-46.36 -152.56,-237.81 -136.11,-191.45 -396.35,-556.39 -569.85,-788.22 -173.5,-231.83 -260.25,-330.55 -369.43,-438.23 -109.19,-107.69 -240.81,-224.36 -372.43,-341.02 -23.93,14.96 -47.86,29.91 -80.76,47.86 -32.91,17.95 -74.78,38.89 -107.68,65.81 -32.91,26.92 -56.85,59.83 -86.76,92.74 -29.92,32.9 -65.81,65.8 -103.2,88.24 -37.4,22.43 -76.28,34.4 -116.66,50.85 -40.39,16.45 -82.26,37.39 -119.65,47.86 -37.4,10.47 -70.3,10.47 -97.22,10.47 -26.93,0 -47.87,0 -73.29,-8.97 -25.43,-8.98 -55.35,-26.92 -91.24,-56.83 -35.9,-29.92 -77.77,-71.8 -113.67,-97.22 -35.9,-25.43 -65.81,-34.41 -130.12,5.98z"/>
  <path class="fil4 str4" d="M5070.79 5277.5c-9.12,-53.39 9.11,-123.71 27.34,-194.02 57.29,10.42 114.58,20.83 186.2,23.44 71.61,2.6 157.54,-2.6 239.57,-10.41 82.03,-7.82 160.16,-18.23 242.19,-35.16 82.03,-16.93 167.96,-40.36 236.97,-62.49 69.01,-22.14 121.09,-42.98 167.97,-59.9 46.87,-16.93 88.53,-29.95 135.41,-42.97 46.87,-13.02 98.96,-26.04 160.16,-27.34 61.19,-1.3 131.5,9.11 197.91,29.95 66.4,20.83 128.9,52.07 180.98,78.11 52.08,26.04 93.75,46.88 145.83,75.53 52.08,28.64 114.58,65.09 169.27,95.04 54.68,29.95 101.56,53.39 158.85,72.92 57.29,19.53 124.99,35.16 192.7,40.37 67.71,5.2 135.41,0 209.63,-16.93 74.22,-16.93 154.94,-45.57 221.35,-74.22 66.4,-28.65 118.49,-57.29 177.08,-100.26 58.59,-42.97 123.7,-100.26 188.8,-157.55 2.6,70.31 5.21,140.63 7.81,210.94 -23.44,26.04 -46.87,52.08 -65.1,92.45 -18.23,40.36 -31.25,95.04 -29.95,123.69 1.3,28.64 16.93,31.25 36.46,32.55 19.53,1.3 42.96,1.3 66.4,1.3 -2.6,49.48 -5.21,98.95 -7.81,148.43 -93.75,67.71 -187.49,135.42 -266.91,192.71 -79.43,57.29 -144.54,104.17 -188.81,138.02 -44.27,33.85 -67.7,54.69 -75.51,72.91 -7.82,18.23 0,33.86 -19.53,49.48 -19.54,15.62 -66.41,31.25 -109.38,49.47 -42.97,18.23 -82.03,39.07 -114.58,63.81 -32.55,24.74 -58.59,53.38 -84.63,87.23 -26.04,33.86 -52.09,72.92 -70.32,104.17 -18.23,31.25 -28.64,54.68 -40.36,75.51 -11.72,20.84 -24.74,39.07 -41.66,54.69 -16.93,15.63 -37.77,28.65 -59.9,55.99 -22.14,27.35 -45.57,69.01 -58.59,130.21 -13.02,61.2 -15.63,141.92 -6.51,227.85 9.11,85.94 29.95,177.09 55.99,252.61 26.04,75.52 57.29,135.41 88.54,195.31 -67.71,18.23 -135.42,36.45 -203.13,54.68 23.44,15.63 46.88,31.25 82.04,50.78 35.15,19.54 82.03,42.97 114.58,76.82 32.55,33.86 50.77,78.13 62.49,131.51 11.72,53.39 16.93,115.89 14.33,153.65 -2.61,37.76 -13.02,50.78 -22.13,58.59 -9.12,7.81 -16.94,10.42 -44.28,22.13 -27.34,11.72 -74.22,32.56 -97.65,32.56 -23.44,0 -23.44,-20.84 -31.25,-54.69 -7.81,-33.85 -23.44,-80.73 -39.06,-123.7 -15.63,-42.96 -31.25,-82.03 -50.78,-111.98 -19.54,-29.94 -42.97,-50.78 -65.1,-71.61 -22.14,-20.83 -42.98,-41.66 -67.71,-52.08 -24.74,-10.41 -53.39,-10.41 -72.92,-1.3 -19.53,9.12 -29.94,27.34 -40.36,52.08 -10.42,24.74 -20.83,55.99 -26.04,79.42 -5.21,23.44 -5.21,39.07 5.21,53.39 10.41,14.32 31.25,27.35 50.78,48.18 19.53,20.83 37.75,49.48 46.87,76.82 9.11,27.34 9.11,53.38 5.21,76.81 -3.91,23.44 -11.72,44.28 -20.83,65.11 -9.12,20.83 -19.53,41.67 -20.83,61.2 -1.31,19.53 6.5,37.76 2.6,49.48 -3.91,11.72 -19.54,16.92 -37.76,24.73 -18.23,7.82 -39.07,18.23 -59.9,28.65 -13.02,-57.29 -26.04,-114.58 -36.45,-173.17 -10.42,-58.59 -18.24,-118.49 -39.07,-177.08 -20.83,-58.59 -54.69,-115.88 -92.45,-154.94 -37.76,-39.06 -79.42,-59.9 -117.18,-72.92 -37.76,-13.02 -71.62,-18.23 -96.35,-27.35 -24.74,-9.11 -40.37,-22.13 -54.69,-11.72 -14.32,10.42 -27.34,44.28 -36.45,88.55 -9.12,44.27 -14.33,98.95 -19.54,153.64 -13.02,-36.46 -26.04,-72.91 -32.55,-104.16 -6.51,-31.25 -6.51,-57.3 -15.62,-82.04 -9.12,-24.74 -27.34,-48.17 -48.17,-59.89 -20.84,-11.72 -44.28,-11.72 -67.72,-5.21 -23.44,6.51 -46.87,19.53 -70.31,42.96 -23.44,23.44 -46.87,57.3 -71.61,104.17 -24.74,46.88 -50.78,106.77 -76.82,166.67 -13.02,-59.9 -26.04,-119.79 -33.85,-171.88 -7.81,-52.08 -10.42,-96.34 -11.72,-132.8 -1.3,-36.46 -1.3,-65.1 -7.81,-87.24 -6.51,-22.13 -19.54,-37.76 -31.26,-49.48 -11.72,-11.71 -22.13,-19.53 -36.45,-9.12 -14.33,10.42 -32.55,39.07 -41.66,65.11 -9.12,26.04 -9.12,49.48 -9.12,72.92 -18.23,-33.86 -36.46,-67.71 -53.38,-100.27 -16.93,-32.55 -32.56,-63.79 -42.97,-88.53 -10.42,-24.74 -15.63,-42.97 -18.23,-62.5 -2.61,-19.53 -2.61,-40.37 2.6,-70.32 5.21,-29.94 15.62,-69 31.25,-122.39 15.62,-53.38 36.46,-121.08 49.48,-183.58 13.02,-62.5 18.23,-119.8 24.74,-175.79 6.51,-55.98 14.32,-110.67 19.53,-158.85 5.21,-48.17 7.81,-89.83 3.91,-135.41 -3.91,-45.57 -14.32,-95.05 -31.25,-135.42 -16.93,-40.36 -40.37,-71.6 -63.81,-97.64 -23.44,-26.04 -46.87,-46.88 -70.31,-67.71 15.63,-10.42 31.25,-20.83 10.42,-72.92 -20.83,-52.08 -78.12,-145.83 -138.01,-222.65 -59.9,-76.82 -122.4,-136.72 -178.39,-188.8 -55.99,-52.08 -105.46,-96.35 -148.43,-136.71 -42.97,-40.37 -79.43,-76.82 -88.54,-130.2z"/>
  <path class="fil4 str4" d="M6329.62 4334.86c-35.06,-24.89 -48.63,-81.43 -70.12,-127.8 -21.49,-46.37 -50.89,-82.56 -83.69,-115.36 -32.8,-32.8 -68.99,-62.2 -100.65,-92.74 -31.67,-30.54 -58.82,-62.2 -84.83,-102.91 -26.01,-40.72 -50.89,-90.49 -75.77,-132.33 -24.88,-41.85 -49.77,-75.77 -74.65,-109.7 27.14,-42.98 54.29,-85.95 82.57,-126.66 28.27,-40.72 57.67,-79.18 96.13,-136.86 38.45,-57.68 85.95,-134.58 133.45,-211.49 54.29,24.88 108.57,49.76 168.52,78.04 59.94,28.27 125.53,59.93 183.21,84.82 57.68,24.88 107.44,42.97 158.34,57.68 50.89,14.7 102.91,26.01 149.28,23.75 46.37,-2.26 87.09,-18.1 133.46,-33.93 46.37,-15.83 98.39,-31.67 160.6,-54.29 62.2,-22.62 134.58,-52.02 206.96,-81.43 158.34,230.72 316.67,461.44 475.01,692.16 -33.93,2.26 -67.86,4.52 -115.36,20.36 -47.5,15.83 -108.58,45.23 -174.17,84.82 -65.6,39.58 -135.72,89.34 -204.71,136.84 -68.99,47.5 -136.84,92.74 -187.73,127.8 -50.9,35.06 -84.83,59.94 -118.76,84.82 -36.19,-9.05 -72.38,-18.09 -122.14,-27.14 -49.76,-9.05 -113.1,-18.09 -179.82,-22.61 -66.73,-4.53 -136.85,-4.53 -200.18,-1.14 -63.34,3.39 -119.89,10.18 -154.95,-14.7z"/>
  <path class="fil5 str5" d="M6745.29 2995.21c-9,61.85 -17.99,123.71 -22.49,183.88 -4.5,60.16 -4.5,118.64 4.5,167.56 8.99,48.92 26.99,88.29 37.67,108.53 10.68,20.24 14.06,21.37 17.43,22.49 -2.25,-30.36 -4.49,-60.73 -5.61,-89.4 -1.13,-28.68 -1.13,-55.68 0.56,-87.73 1.68,-32.05 5.06,-69.16 9.56,-104.58 4.49,-35.43 10.12,-69.17 16.87,-100.66 6.74,-31.49 14.62,-60.73 20.81,-83.22 6.18,-22.49 10.67,-38.24 16.86,-65.79 6.18,-27.55 14.06,-66.92 -1.68,-81.54 -15.75,-14.62 -55.12,-4.49 -74.8,21.38 -19.68,25.86 -19.68,67.47 -19.68,109.08z"/>
  <path class="fil5 str6" d="M7016.2 2741.37c0.56,19.85 -2.79,41.11 -11.46,68.52 -8.67,27.4 -22.66,60.95 -34.68,92.55 -12.03,31.6 -22.09,61.25 -29.64,86.7 -7.55,25.44 -12.59,46.7 -15.94,67.11 -3.36,20.41 -5.03,39.99 -4.19,59.85 0.83,19.85 4.19,39.98 7.54,60.12 1.68,-19.58 3.36,-39.15 6.16,-62.36 2.79,-23.22 6.71,-50.06 12.3,-73.27 5.59,-23.21 12.86,-42.79 20.97,-62.08 8.11,-19.3 17.06,-38.31 25.45,-58.16 8.39,-19.86 16.22,-40.56 25.45,-61.25 9.23,-20.69 19.85,-41.39 29.08,-62.64 9.23,-21.25 17.06,-43.07 23.77,-60.68 6.71,-17.62 12.31,-31.05 15.95,-41.67 3.63,-10.63 5.3,-18.46 6.98,-26.29 -29.08,5.59 -58.17,11.19 -87.25,16.78 4.48,18.46 8.95,36.91 9.51,56.77z"/>
  <path class="fil5 str6" d="M6399.13 4663.15c-4.89,-17.61 2.93,-38.16 14.19,-56.25 11.25,-18.1 25.92,-33.76 42.56,-48.43 16.63,-14.68 35.21,-28.37 49.89,-45.49 14.67,-17.12 25.43,-37.67 36.19,-64.08 10.76,-26.41 21.52,-58.7 28.86,-91.96 7.33,-33.26 11.25,-67.5 20.06,-116.41 8.8,-48.92 22.49,-112.5 36.19,-176.09 7.83,50.87 15.65,101.74 22.01,148.7 6.36,46.95 11.25,90 19.57,130.11 8.31,40.11 20.05,77.28 27.88,104.19 7.82,26.9 11.74,43.53 23.97,53.31 12.22,9.78 32.77,12.72 52.34,26.42 19.56,13.69 38.14,38.14 57.71,63.09 19.57,24.95 40.11,50.38 60.66,75.82 -22.5,2.94 -45,5.87 -64.56,10.28 -19.57,4.4 -36.21,10.26 -51.37,19.07 -15.17,8.8 -28.86,20.54 -41.09,38.64 -12.23,18.1 -22.99,42.55 -34.24,62.12 -11.25,19.57 -22.99,34.24 -36.19,45.49 -13.21,11.25 -27.89,19.08 -45.98,21.04 -18.1,1.95 -39.63,-1.96 -54.3,-13.21 -14.67,-11.25 -22.5,-29.84 -33.75,-46.96 -11.25,-17.12 -25.92,-32.77 -41.57,-47.93 -15.66,-15.17 -32.29,-29.84 -49.41,-44.51 -17.12,-14.68 -34.73,-29.36 -39.62,-46.96z"/>
  <path class="fil5 str5" d="M6265.05 4682.95c-2.25,-11.82 -25.87,-14.07 -46.68,-18.57 -20.82,-4.5 -38.82,-11.26 -57.94,-19.69 -19.13,-8.44 -39.39,-18.57 -58.51,-30.94 -19.13,-12.38 -37.13,-27 -51.75,-42.19 -14.63,-15.19 -25.89,-30.94 -40.51,-48.38 -14.63,-17.44 -32.63,-36.56 -49.5,-56.25 -16.88,-19.69 -32.63,-39.95 -48.38,-59.07 -15.75,-19.13 -31.51,-37.13 -48.38,-52.88 -16.88,-15.75 -34.88,-29.26 -52.88,-42.76 -18,-13.5 -36.01,-27 -52.88,-39.37 -16.88,-12.38 -32.63,-23.63 -50.07,-30.94 -17.44,-7.32 -36.56,-10.69 -55.12,-14.06 -18.57,-3.38 -36.57,-6.76 -55.13,-10.13 -18.57,-3.38 -37.69,-6.75 -56.25,-11.81 -18.57,-5.07 -36.58,-11.82 -54.58,-18.57 -18,-6.75 -36,-13.5 -54,-20.81 -18,-7.32 -36.01,-15.19 -55.7,-25.32 -19.69,-10.13 -41.06,-22.5 -57.93,-32.62 -16.88,-10.13 -29.26,-18.01 -38.26,-25.88 -9,-7.88 -14.62,-15.75 -12.37,-20.25 2.25,-4.51 12.37,-5.63 30.38,-3.38 18,2.25 43.87,7.87 68.06,15.19 24.19,7.31 46.69,16.31 80.44,32.63 33.75,16.31 78.76,39.93 123.76,63.56 -15.75,-19.13 -31.5,-38.25 -47.25,-51.75 -15.75,-13.5 -31.5,-21.38 -47.81,-32.06 -16.32,-10.69 -33.19,-24.2 -51.75,-34.88 -18.57,-10.69 -38.83,-18.57 -57.39,-24.75 -18.57,-6.19 -35.44,-10.69 -52.88,-13.5 -17.44,-2.82 -35.44,-3.94 -54,-5.63 -18.57,-1.69 -37.69,-3.94 -51.75,-5.06 -14.07,-1.13 -23.07,-1.13 -31.51,0 -8.44,1.12 -16.31,3.37 -25.31,12.37 -9.01,9 -19.13,24.75 -28.69,41.63 -9.57,16.87 -18.57,34.88 -24.19,51.2 -5.63,16.31 -7.88,30.93 -12.94,49.5 -5.06,18.56 -12.94,41.06 -20.81,65.25 -7.88,24.19 -15.75,50.06 -16.88,73.69 -1.13,23.63 4.5,45 12.94,70.88 8.43,25.88 19.69,56.25 31.51,89.44 11.81,33.19 24.18,69.2 41.62,106.89 17.44,37.69 39.94,77.07 65.82,109.7 25.87,32.63 55.13,58.5 83.82,80.44 28.69,21.94 56.81,39.94 86.63,52.32 29.81,12.37 61.32,19.12 97.89,27 36.56,7.87 78.18,16.88 115.87,22.51 37.69,5.62 71.45,7.87 113.64,6.75 42.19,-1.13 92.82,-5.63 143.45,-10.13 -15.75,14.62 -31.51,29.25 -53.45,40.5 -21.94,11.25 -50.06,19.12 -78.19,27 19.13,2.25 38.25,4.5 61.32,0.56 23.06,-3.94 50.07,-14.06 70.88,-23.06 20.81,-9 35.44,-16.88 48.94,-24.75 13.5,-7.88 25.87,-15.75 40.5,-21.94 14.63,-6.19 31.5,-10.69 41.63,-9 10.13,1.69 13.5,9.56 7.88,18 -5.63,8.44 -20.25,17.44 -37.69,27.57 -17.44,10.12 -37.7,21.37 -56.82,30.94 -19.13,9.56 -37.13,17.43 -59.07,24.75 -21.94,7.31 -47.81,14.06 -67.5,19.12 -19.69,5.06 -33.19,8.44 -46.69,11.25 -13.5,2.81 -27.01,5.07 -40.51,8.45 -13.5,3.37 -27,7.87 -40.5,12.37 19.13,3.37 38.25,6.75 63.57,5.06 25.31,-1.69 56.82,-8.44 88.89,-17.44 32.06,-9 64.68,-20.25 98.44,-34.87 33.75,-14.63 68.62,-32.64 101.81,-52.33 33.19,-19.69 64.7,-41.06 94.52,-57.37 29.81,-16.32 57.93,-27.57 82.69,-43.32 24.75,-15.75 46.12,-36 66.38,-56.81 20.25,-20.82 39.37,-42.19 37.12,-54z"/>
  <path class="fil6 str4" d="M5601.25 4421.15c19.57,-8.81 45.01,-12.73 68.01,-14.68 22.99,-1.96 43.53,-1.96 65.06,5.38 21.52,7.34 44.02,22.01 61.14,39.63 17.12,17.61 28.87,38.15 36.21,58.21 7.33,20.06 10.27,39.62 9.29,62.13 -0.98,22.5 -5.87,47.94 -12.72,69.47 -6.85,21.52 -15.65,39.13 -28.86,53.81 -13.21,14.67 -30.82,26.41 -50.87,35.22 -20.06,8.8 -42.57,14.67 -62.62,16.63 -20.06,1.95 -37.68,0 -56.76,-7.83 -19.08,-7.83 -39.62,-21.52 -55.76,-35.71 -16.15,-14.19 -27.89,-28.86 -36.2,-44.02 -8.32,-15.17 -13.21,-30.83 -16.63,-51.37 -3.43,-20.55 -5.38,-45.98 -3.42,-67.5 1.95,-21.53 7.82,-39.15 14.67,-52.35 6.85,-13.21 14.67,-22.02 25.44,-33.27 10.76,-11.25 24.45,-24.95 44.02,-33.75z"/>
  <path class="fil5 str6" d="M5684.5 4438.15c-7.36,12.16 -14.72,24.31 -20.64,37.11 -5.92,12.8 -10.39,26.23 -13.59,40.31 -3.2,14.08 -5.12,28.79 -5.92,42.07 -0.8,13.27 -0.48,25.11 1.92,37.59 2.4,12.47 6.87,25.58 12.95,42.06 6.08,16.47 13.76,36.31 21.44,56.14 4.8,-10.24 9.59,-20.47 12.79,-28.79 3.2,-8.32 4.8,-14.71 7.04,-21.91 2.24,-7.2 5.12,-15.19 7.84,-23.19 2.72,-8 5.28,-16 6.88,-23.52 1.6,-7.52 2.24,-14.55 2.56,-22.71 0.32,-8.16 0.32,-17.43 -0.8,-25.75 -1.12,-8.32 -3.36,-15.67 -5.76,-23.67 -2.4,-8 -4.96,-16.64 -7.36,-25.6 -2.4,-8.96 -4.64,-18.23 -7.84,-28.31 -3.2,-10.08 -7.35,-20.95 -11.51,-31.83z"/>
  <path class="fil5 str5" d="M6968.16 4671.76c17.44,-18.01 52.33,-27.01 84.97,-37.7 32.64,-10.7 63.03,-23.08 96.23,-48.4 33.2,-25.33 69.22,-63.59 102.42,-95.1 33.2,-31.52 63.59,-56.28 93.98,-76.54 30.39,-20.26 60.77,-36.01 91.73,-48.95 30.95,-12.95 62.46,-23.08 102.98,-37.15 40.52,-14.07 90.04,-32.08 125.5,-50.09 35.45,-18.01 56.83,-36.01 74.84,-54.58 18.01,-18.57 32.64,-37.71 47.27,-56.84 -14.63,-1.13 -29.26,-2.25 -46.7,-1.12 -17.45,1.12 -37.71,4.49 -57.4,9.56 -19.7,5.06 -38.84,11.82 -65.85,22.51 -27.01,10.69 -61.9,25.33 -93.41,43.34 -31.52,18 -59.66,39.39 -83.86,59.09 -24.2,19.69 -44.45,37.69 -64.71,55.7 6.75,-18.01 13.51,-36.01 33.77,-56.83 20.25,-20.83 54.02,-44.46 91.16,-66.97 37.14,-22.51 77.66,-43.9 120.43,-61.34 42.77,-17.45 87.79,-30.95 131.12,-37.14 43.33,-6.19 84.98,-5.07 124.94,-0.56 39.95,4.5 78.21,12.37 120.98,30.38 42.77,18.01 90.04,46.15 137.31,74.29 0,46.14 0,92.29 -1.69,145.19 -1.69,52.89 -5.06,112.55 -21.94,168.83 -16.89,56.27 -47.27,109.16 -82.16,161.5 -34.89,52.33 -74.29,104.11 -107.49,144.07 -33.2,39.95 -60.22,68.08 -90.04,93.41 -29.83,25.32 -62.47,47.83 -104.11,70.34 -41.65,22.51 -92.29,45.02 -142.94,67.53 30.39,-19.13 60.78,-38.27 94.55,-61.9 33.76,-23.64 70.9,-51.77 89.47,-68.65 18.57,-16.89 18.57,-22.51 13.51,-25.89 -5.07,-3.38 -15.2,-4.5 -31.52,-2.81 -16.32,1.68 -38.83,6.19 -62.46,11.26 -23.64,5.06 -48.4,10.68 -75.97,14.62 -27.58,3.94 -57.97,6.19 -90.04,8.44 -32.08,2.25 -65.85,4.51 -94.55,5.64 -28.7,1.12 -52.33,1.12 -82.72,-2.25 -30.39,-3.38 -67.53,-10.14 -99.04,-18.01 -31.52,-7.88 -57.4,-16.89 -83.29,-25.89 16.88,20.26 33.77,40.51 61.91,64.15 28.13,23.63 67.52,50.65 106.91,77.66 -25.89,-6.75 -51.77,-13.51 -77.09,-26.45 -25.33,-12.94 -50.09,-32.08 -73.16,-51.21 -23.07,-19.13 -44.46,-38.27 -58.52,-54.02 -14.07,-15.76 -20.83,-28.14 -28.7,-36.58 -7.88,-8.44 -16.89,-12.95 -25.89,-16.32 -9.01,-3.38 -18.01,-5.63 -24.2,-4.5 -6.2,1.12 -9.57,5.62 -6.75,14.06 2.81,8.44 11.81,20.83 23.63,34.9 11.82,14.07 26.45,29.82 39.4,44.46 12.94,14.63 24.19,28.13 35.45,41.64 -18.01,-10.13 -36.02,-20.26 -52.34,-33.2 -16.32,-12.95 -30.95,-28.7 -45.58,-45.02 -14.63,-16.32 -29.27,-33.21 -42.21,-55.15 -12.94,-21.95 -24.2,-48.97 -31.51,-72.04 -7.32,-23.07 -10.69,-42.21 -12.38,-65.28 -1.69,-23.07 -1.69,-50.08 15.76,-68.09z"/>
  <path class="fil2 str0" d="M7573.99 4527.93c-14.54,-1.1 -31.83,3.31 -44.34,9.75 -12.52,6.44 -20.24,14.91 -27.41,26.69 -7.18,11.77 -13.81,26.85 -16.01,42.49 -2.21,15.64 -0.01,31.83 5.88,45.82 5.89,13.98 15.46,25.75 27.24,33.48 11.77,7.73 25.76,11.41 39.93,11.96 14.16,0.55 28.51,-2.02 42.31,-9.38 13.8,-7.36 27.04,-19.51 35.32,-32.57 8.28,-13.06 11.6,-27.05 11.97,-42.32 0.36,-15.27 -2.21,-31.83 -8.83,-43.97 -6.63,-12.15 -17.3,-19.87 -28.52,-27.04 -11.23,-7.18 -23,-13.81 -37.54,-14.91z"/>
  <path class="fil7 str7" d="M6722.47 5324.51c29.61,-0.32 45.06,2.9 60.19,12.24 15.13,9.33 29.93,24.78 43.45,44.42 13.52,19.63 25.75,43.44 40.24,73.38 14.48,29.93 31.21,65.98 42.48,105.25 11.26,39.27 17.06,81.75 18.03,122.95 0.96,41.2 -2.91,81.11 -9.66,121.02 -6.76,39.91 -16.42,79.82 -26.07,114.26 -9.66,34.44 -19.31,63.41 -31.22,90.44 -11.91,27.04 -26.08,52.15 -44.1,73.71 -18.03,21.57 -39.91,39.59 -57.29,51.5 -17.38,11.91 -30.26,17.71 -46.67,18.99 -16.42,1.29 -36.37,-1.93 -52.79,-8.37 -16.42,-6.44 -29.29,-16.09 -41.2,-28.97 -11.91,-12.87 -22.86,-28.96 -33.8,-45.05 -9.01,18.67 -18.02,37.33 -29.28,53.1 -11.27,15.77 -24.79,28.65 -41.85,39.91 -17.06,11.27 -37.66,20.92 -56.33,23.49 -18.67,2.58 -35.4,-1.92 -51.81,-7.4 -16.42,-5.47 -32.52,-11.9 -46.03,-23.17 -13.52,-11.26 -24.47,-27.36 -37.98,-45.39 -13.52,-18.02 -29.62,-37.97 -45.71,-61.79 -16.09,-23.82 -32.19,-51.5 -44.42,-75.64 -12.23,-24.14 -20.6,-44.73 -27.03,-66.94 -6.44,-22.21 -10.95,-46.03 -10.95,-71.13 0,-25.11 4.51,-51.51 9.34,-76.61 4.82,-25.11 9.97,-48.92 41.19,-102.67 31.22,-53.76 88.52,-137.44 153.22,-196.34 64.69,-58.91 136.79,-93.02 194.73,-112.01 57.93,-18.99 101.71,-22.86 131.32,-23.18z"/>
  <path class="fil8 str5" d="M6546.43 5171.22c-20.1,5.95 -43.92,17.86 -70.72,41.68 -26.8,23.82 -56.58,59.56 -81.89,94.55 -25.31,34.98 -46.16,69.23 -67.74,110.92 -21.59,41.68 -43.93,90.82 -60.3,134 -16.38,43.17 -26.8,80.4 -33.5,125.07 -6.7,44.66 -9.68,96.77 0,148.88 9.67,52.11 32.01,104.22 56.58,145.16 24.56,40.95 51.36,70.72 78.16,100.5 -5.96,-16.38 -11.91,-32.75 -23.82,-56.58 -11.91,-23.82 -29.78,-55.08 -42.43,-84.12 -12.66,-29.03 -20.1,-55.83 -26.06,-83.37 -5.96,-27.55 -10.42,-55.84 -12.65,-75.19 -2.24,-19.36 -2.24,-29.78 -2.24,-40.2 16.38,32.75 32.76,65.51 49.14,92.31 16.38,26.8 32.75,47.64 54.34,61.04 21.59,13.4 48.39,19.36 73.7,14.14 25.31,-5.21 49.13,-21.58 64.77,-49.87 15.63,-28.29 23.07,-68.49 29.77,-110.92 6.7,-42.44 12.66,-87.1 20.1,-127.3 7.44,-40.2 16.38,-75.94 25.31,-111.67 5.96,40.2 11.91,80.4 14.89,119.86 2.98,39.45 2.98,78.16 5.22,115.38 2.23,37.22 6.69,72.96 20.84,101.99 14.14,29.03 37.96,51.37 62.53,60.3 24.56,8.93 49.88,4.47 67.75,6.7 17.86,2.23 28.28,11.17 23.07,35.73 -5.21,24.57 -26.06,64.77 -46.9,104.97 22.33,-23.82 44.67,-47.64 63.28,-80.4 18.61,-32.75 33.5,-74.44 44.67,-117.62 11.16,-43.18 18.61,-87.84 21.59,-133.99 2.97,-46.16 1.48,-93.81 -6.71,-139.96 -8.19,-46.16 -23.07,-90.82 -41.68,-130.27 -18.61,-39.46 -40.95,-73.71 -62.54,-104.97 -21.59,-31.27 -42.43,-59.56 -61.04,-85.61 -18.62,-26.06 -34.99,-49.88 -48.39,-64.02 -13.4,-14.15 -23.82,-18.61 -37.22,-20.84 -13.4,-2.24 -29.78,-2.24 -49.88,3.72z"/>
  <path class="fil2 str8" d="M6366.49 7566.21c11.65,-20.72 23.31,-41.43 44.03,-56.33 20.71,-14.89 50.5,-23.95 81.58,-24.6 31.07,-0.65 63.45,7.12 93.88,25.89 30.43,18.78 58.91,48.57 79.63,83.53 20.72,34.96 33.67,75.1 44.68,115.24 11,40.14 20.07,80.29 29.14,126.26 9.06,45.97 18.12,97.76 20.71,142.43 2.59,44.68 -1.29,82.23 -5.18,119.78"/>
  <path class="fil2 str6" d="M6600.88 7770.63c10.94,14.81 21.89,29.62 30.9,48.61 9.01,19 16.1,42.17 21.57,65.35 5.47,23.18 9.34,46.36 10.63,75.97 1.28,29.62 0,65.68 -2.57,92.07 -2.58,26.4 -6.45,43.14 -10.31,59.88"/>
  <path class="fil4" d="M6472.94 8081.15c-5.04,-20.72 -10.08,-41.43 -15.12,-61.87 -5.04,-20.44 -10.08,-40.6 -14.28,-66.36 -4.2,-25.75 -7.56,-57.11 -8.12,-88.47 -0.56,-31.35 1.68,-62.7 5.6,-91.82 3.92,-29.12 9.52,-55.99 15.96,-76.43 6.44,-20.44 13.72,-34.44 21,-43.96 7.28,-9.52 14.56,-14.56 24.08,-15.68 9.52,-1.12 21.27,1.68 30.23,8.12 8.96,6.44 15.12,16.52 17.92,32.2 2.8,15.68 2.24,36.95 1.96,64.67 -0.28,27.72 -0.28,61.87 0.28,102.46 0.56,40.6 1.68,87.64 2.52,121.51 0.84,33.88 1.4,54.59 -1.12,72.23 -2.52,17.64 -8.12,32.2 -13.72,46.76 -22.4,-1.12 -44.79,-2.24 -67.19,-3.36z"/>
  <path class="fil9 str9" d="M6242.7 7547.19c-8.47,-1.9 -14.39,13.76 -16.51,35.78 -2.12,22.02 -0.42,50.39 1.06,85.11 1.48,34.72 2.75,75.8 4.45,112.85 1.69,37.05 3.8,70.08 6.13,100.14 2.33,30.07 4.87,57.17 8.68,80.46 3.81,23.29 8.9,42.76 16.31,64.57 7.41,21.81 17.15,45.94 26.89,70.08 4.23,-14.82 8.47,-29.64 11.43,-55.47 2.96,-25.83 4.66,-62.67 5.08,-99.94 0.42,-37.26 -0.42,-74.94 -0.63,-106.91 -0.22,-31.97 0.21,-58.23 -1.91,-81.52 -2.12,-23.28 -6.77,-43.61 -10.58,-63.09 -3.82,-19.47 -6.78,-38.11 -9.96,-54.84 -3.18,-16.72 -6.56,-31.54 -13.76,-48.69 -7.2,-17.15 -18.21,-36.62 -26.68,-38.53z"/>
  <path class="fil5 str6" d="M6087.45 7481.89c-12.91,7.55 -29.96,23.14 -47.73,43.83 -17.78,20.7 -36.29,46.52 -50.17,74.28 -13.88,27.76 -23.14,57.46 -29.71,84.98 -6.57,27.52 -10.47,52.84 -14.6,82.06 -4.14,29.23 -8.53,62.34 -12.91,95.46 14.61,14.61 29.22,29.23 43.83,43.84 4.87,-30.68 9.74,-61.37 14.13,-91.08 4.38,-29.71 8.27,-58.44 13.63,-83.77 5.36,-25.32 12.17,-47.24 18.99,-68.43 6.82,-21.18 13.64,-41.63 25.09,-64.04 11.44,-22.4 27.51,-46.75 41.15,-64.77 13.63,-18.02 24.84,-29.71 29.22,-38.48 4.38,-8.76 1.95,-14.61 -3.65,-17.78 -5.61,-3.16 -14.37,-3.64 -27.27,3.9z"/>
  <path class="fil5 str6" d="M5751.75 7729.58c-3.38,-33.8 -6.76,-67.59 -8.45,-104.77 -1.69,-37.18 -1.69,-77.74 2.26,-122.24 3.94,-44.5 11.82,-92.95 23.09,-135.76 11.27,-42.81 25.91,-79.99 36.05,-94.64 10.14,-14.64 15.78,-6.76 19.16,9.01 3.38,15.78 4.5,39.44 0.56,67.04 -3.94,27.61 -12.96,59.15 -18.59,92.38 -5.63,33.24 -7.89,68.17 -9.01,105.91 -1.13,37.74 -1.13,78.3 -2.25,117.17 -1.13,38.87 -3.39,76.04 -5.64,113.22 -12.39,-15.77 -24.79,-31.55 -37.18,-47.32z"/>
  <path class="fil2 str10" d="M5671.38 7671.59c-2.24,-36.97 -4.48,-73.95 -6.44,-101.12 -1.96,-27.17 -3.64,-44.53 -5.88,-65.82 -2.24,-21.29 -5.05,-46.49 -5.05,-72.82 0,-26.33 2.81,-53.78 6.45,-73.39 3.64,-19.6 8.12,-31.37 11.2,-42.29 3.08,-10.92 4.76,-21.01 7.84,-26.61 3.08,-5.6 7.57,-6.72 10.65,1.12 3.08,7.84 4.76,24.65 2.52,40.33 -2.24,15.69 -8.41,30.25 -12.05,44.25 -3.64,14.01 -4.76,27.46 -4.76,40.34 0,12.88 1.12,25.21 3.08,41.17 1.96,15.97 4.77,35.57 6.45,54.06 1.68,18.49 2.24,35.85 3.08,53.5 0.84,17.65 1.96,35.57 4.2,62.18 2.24,26.61 5.6,61.91 8.96,97.2 -10.08,-17.37 -20.17,-34.73 -30.25,-52.1z"/>
  <path class="fil5 str9" d="M6838.76 7580.34c-3.39,-16.95 -6.78,-33.89 -4.24,-55.29 2.54,-21.4 11.02,-47.24 21.83,-67.37 10.8,-20.13 23.93,-34.53 38.34,-44.91 14.41,-10.38 30.08,-16.74 50,-15.89 19.91,0.85 44.06,8.9 66.09,24.57 22.03,15.68 41.95,38.99 61.02,64.83 19.06,25.85 37.28,54.23 51.9,80.92 14.62,26.7 25.63,51.7 36.01,79.66 10.38,27.97 20.13,58.9 27.76,97.24 7.62,38.35 13.13,84.11 18.64,129.87 -6.78,-6.36 -13.56,-12.71 -22.24,-24.58 -8.69,-11.86 -19.29,-29.23 -29.24,-54.02 -9.96,-24.78 -19.28,-56.99 -29.23,-83.05 -9.96,-26.05 -20.56,-45.97 -31.15,-65.04 -10.59,-19.06 -21.19,-37.28 -31.78,-55.08 -10.59,-17.79 -21.18,-35.16 -32.19,-49.78 -11.02,-14.61 -22.46,-26.48 -34.32,-36.65 -11.87,-10.17 -24.16,-18.64 -35.6,-23.52 -11.44,-4.87 -22.03,-6.14 -33.04,-4.87 -11.02,1.27 -22.46,5.09 -31.36,11.65 -8.9,6.57 -15.25,15.89 -20.76,26.48 -5.51,10.6 -10.17,22.46 -16.1,33.48 -5.93,11.02 -13.14,21.18 -20.34,31.35z"/>
  <path class="fil10 str11" d="M7214.32 7374.77c-6.73,8.41 -9.54,44.27 -8.42,87.14 1.12,42.88 6.17,92.76 15.42,141.52 9.24,48.76 22.7,96.4 38.95,132.83 16.25,36.43 35.31,61.65 54.36,86.87 -4.48,-17.38 -8.97,-34.75 -10.37,-58.01 -1.4,-23.26 0.28,-52.41 1.12,-77.07 0.84,-24.65 0.84,-44.83 -1.96,-66.69 -2.8,-21.85 -8.41,-45.39 -15.13,-68.93 -6.73,-23.54 -14.57,-47.08 -22.42,-71.74 -7.85,-24.66 -15.69,-50.44 -24.94,-72.86 -9.25,-22.41 -19.89,-41.47 -26.61,-33.06z"/>
  <path class="fil8 str11" d="M7316.63 7282.1c-3.48,-2.78 1.81,-11.43 11.29,-19.1 9.48,-7.66 23.13,-14.34 37.63,-18.25 14.49,-3.9 29.82,-5.01 43.62,-3.9 13.79,1.12 26.06,4.46 36.93,7.66 10.87,3.21 20.34,6.28 27.87,11.29 7.52,5.02 13.1,11.99 22.3,21.6 9.19,9.62 22.02,21.89 31.5,38.33 9.47,16.45 15.6,37.07 14.35,52.68 -1.26,15.61 -9.9,26.2 -18.54,36.79 -9.48,-10.59 -18.95,-21.18 -27.45,-32.05 -8.5,-10.87 -16.03,-22.02 -23.13,-30.94 -7.11,-8.92 -13.8,-15.61 -21.6,-21.33 -7.81,-5.71 -16.73,-10.44 -27.32,-15.32 -10.59,-4.88 -22.86,-9.9 -32.05,-14.08 -9.2,-4.18 -15.34,-7.53 -22.72,-10.18 -7.39,-2.64 -16.03,-4.59 -26.48,-4.03 -10.45,0.56 -22.72,3.62 -26.2,0.83z"/>
  <path class="fil11 str9" d="M7409.25 7425.84c1.47,11.98 16.21,37.43 28.01,64.16 11.8,26.73 20.65,54.75 27.47,82.77 6.82,28.02 11.62,56.05 14.02,76.88 2.39,20.83 2.39,34.47 2.39,48.11 11.8,-28.02 23.59,-56.04 35.39,-84.06 -7.74,-23.23 -15.48,-46.46 -22.67,-67.66 -7.19,-21.2 -13.83,-40.38 -20.83,-57.34 -7.01,-16.96 -14.39,-31.7 -21.39,-43.32 -7.01,-11.61 -13.64,-20.09 -22.86,-25.07 -9.22,-4.98 -21.01,-6.45 -19.53,5.53z"/>
  <path class="fil2 str2" d="M4600.22 7997.2c-63.89,-191.66 -127.77,-383.33 -184.81,-579.56 -57.05,-196.22 -107.24,-397.01 -148.31,-613.77 -41.08,-216.76 -73.02,-449.5 -91.27,-645.73 -18.26,-196.22 -22.83,-355.94 -15.98,-506.53 6.85,-150.6 25.1,-292.06 70.74,-442.65 45.63,-150.6 118.65,-310.32 196.23,-479.16 77.57,-168.85 159.71,-346.83 273.8,-545.33 114.08,-198.51 260.11,-417.56 392.45,-611.5 132.34,-193.95 250.99,-362.79 349.11,-522.51 98.11,-159.72 175.68,-310.32 276.08,-463.19 100.39,-152.88 223.61,-308.03 346.82,-438.09 123.21,-130.06 246.42,-235.01 346.82,-301.18 100.39,-66.17 177.97,-93.55 264.68,-91.27 86.7,2.28 182.53,34.23 264.67,79.86 82.14,45.63 150.6,104.96 219.05,184.82 68.45,79.86 136.9,180.25 209.92,278.37 73.01,98.11 150.58,193.94 235.01,296.62 84.42,102.67 175.69,212.2 255.55,310.31 79.86,98.11 148.31,184.82 228.17,282.93 79.86,98.11 171.13,207.64 264.68,335.42 93.55,127.77 189.38,273.8 266.96,410.7 77.57,136.9 136.9,264.68 191.66,381.05 54.76,116.36 104.96,221.32 148.32,335.41 43.35,114.08 79.85,237.3 111.8,355.95 31.94,118.64 59.32,232.73 70.73,367.35 11.41,134.62 6.84,289.77 -6.85,481.44 -13.69,191.66 -36.5,419.83 -63.88,627.46 -27.38,207.64 -59.33,394.74 -116.37,661.7 -57.04,266.96 -139.19,613.78 -221.33,960.6"/>
  <path class="fil6 str3" d="M6435.27 9281.12c25.22,-6.3 53.4,-27.06 81.59,-47.83 -22.99,-20.03 -45.99,-40.05 -68.98,-60.08 -14.84,8.16 -29.67,16.32 -48.95,20.03 -19.29,3.71 -43.03,2.96 -63.05,-5.57 -20.03,-8.53 -36.35,-24.84 -47.47,-47.47 -11.13,-22.62 -17.07,-51.54 -11.87,-76.39 5.19,-24.85 21.51,-45.62 38.94,-60.46 17.43,-14.83 35.98,-23.73 54.15,-28.18 18.17,-4.45 35.97,-4.45 52.66,1.11 16.69,5.57 32.26,16.69 43.76,31.15 11.5,14.47 18.91,32.27 20.77,49.7 1.85,17.43 -1.85,34.49 -5.56,51.55 37.08,28.19 74.17,56.37 111.25,84.56 35.6,-26.7 71.21,-53.41 106.81,-80.11 1.48,-28.19 2.97,-56.37 13.36,-80.11 10.38,-23.73 29.66,-43.02 50.43,-52.66 20.77,-9.64 43.02,-9.64 65.27,-2.6 22.25,7.05 44.51,21.15 58.6,41.91 14.09,20.77 20.03,48.22 20.4,73.8 0.37,25.59 -4.83,49.33 -16.32,66.76 -11.5,17.43 -29.3,28.55 -47.84,34.11 -18.54,5.57 -37.83,5.57 -54.89,0.38 -17.06,-5.19 -31.89,-15.58 -46.73,-25.96 -28.19,22.25 -56.37,44.5 -84.56,66.75 28.93,20.77 57.86,41.54 86.79,62.31 16.32,-7.42 32.63,-14.83 53.03,-18.91 20.4,-4.08 44.87,-4.83 66.76,0.73 21.88,5.57 41.16,17.44 56.37,38.95 15.2,21.51 26.33,52.66 31.89,82.33 5.56,29.67 5.56,57.85 0,81.21 -5.56,23.37 -16.69,41.92 -31.15,56.01 -14.46,14.09 -32.27,23.74 -53.41,27.82 -21.14,4.08 -45.61,2.59 -66.75,-5.2 -21.14,-7.78 -38.94,-21.88 -53.03,-37.46 -14.1,-15.57 -24.48,-32.63 -31.9,-50.06 -7.42,-17.43 -11.87,-35.23 -14.09,-54.52 -2.23,-19.28 -2.23,-40.05 -2.23,-60.82 -36.34,-25.22 -72.69,-50.44 -109.03,-75.66 -40.05,28.19 -80.11,56.37 -120.16,84.56 0,22.25 0,44.51 -6.3,70.84 -6.31,26.33 -18.92,56.74 -34.12,78.62 -15.21,21.88 -33.01,35.23 -55.26,42.64 -22.25,7.42 -48.96,8.91 -71.58,5.2 -22.62,-3.71 -41.17,-12.61 -55.63,-29.3 -14.46,-16.69 -24.85,-41.16 -28.93,-70.09 -4.08,-28.93 -1.85,-62.3 5.94,-89.01 7.78,-26.7 21.14,-46.72 34.49,-61.19 13.35,-14.46 26.7,-23.37 44.5,-29.68 17.8,-6.3 40.06,-10 62.31,-7.78 22.25,2.23 44.5,10.38 69.72,4.07z"/>
  <path class="fil2 str0" d="M9279.15 1793.16c342.1,360.1 684.19,720.21 1026.29,1080.31"/>
  <path class="fil2 str0" d="M9918.33 1775.16c156.04,162.04 312.09,324.09 468.13,486.13"/>
  <path class="fil0 str3" d="M9534.75 3519.93c0.56,-33.67 1.12,-67.33 -1.12,-94.82 -2.25,-27.5 -7.3,-48.82 -11.51,-64.81 -4.21,-15.99 -7.57,-26.65 -10.94,-37.31 187.96,-187.4 375.93,-374.8 563.89,-562.2 33.1,36.47 66.21,72.94 99.31,109.41 -213.21,216.58 -426.42,433.15 -639.63,649.73z"/>
  <path class="fil0 str0" d="M4093.39 2074.59c-83.65,-91.08 -167.31,-182.15 -250.96,-273.23 112.19,-115.85 224.39,-231.69 336.57,-347.53 -106.84,-112.33 -213.69,-224.68 -320.53,-337.01 -209.81,204.45 -419.63,408.89 -629.44,613.34 -380.39,-327.03 -760.79,-654.08 -1141.18,-981.11 -13.06,-65.82 -26.13,-131.64 -63.21,-198.58 -37.09,-66.93 -98.21,-134.98 -167.89,-175.88 -69.69,-40.89 -147.94,-54.65 -222.95,-53.45 -75.01,1.2 -146.78,17.37 -203.25,51.28 -56.49,33.92 -97.68,85.6 -123.77,143.05 -26.09,57.44 -37.09,120.64 -37.58,183.67 -0.49,63.04 9.53,125.9 32.88,178.04 23.34,52.15 60.02,93.59 104.05,125.9 44.04,32.31 95.43,55.48 143.7,71.21 48.27,15.74 93.43,24.03 131.01,27.93 37.57,3.89 67.58,3.41 97.59,2.93 324.01,366.96 648.02,733.92 972.04,1100.87 -197.77,207.26 -395.52,414.52 -593.28,621.77 112.74,106.24 225.49,212.48 338.24,318.71 94.43,-100.55 188.85,-201.11 283.28,-301.67 299.28,295.52 598.54,591.04 897.82,886.56 138.95,-552.26 277.91,-1104.53 416.86,-1656.8z"/>
  <path class="fil2 str0" d="M2775.94 2844.3c355.44,-346.94 710.9,-693.86 1066.35,-1040.79"/>
  <path class="fil2 str0" d="M2749.31 2205.42c159.91,-158.22 319.84,-316.44 479.76,-474.66"/>
  <path class="fil0 str3" d="M2834.32 2856.84c156.22,-154.5 312.43,-309.01 468.65,-463.51 181.86,158.69 363.71,317.39 545.57,476.08 -11.94,70.16 -23.89,140.33 -43.12,216.96 -19.24,76.62 -45.78,159.7 -73.22,256.43 -27.45,96.72 -55.82,207.08 -84.18,317.44 -271.23,-267.8 -542.47,-535.6 -813.7,-803.4z"/>
  <path class="fil0 str3" d="M2968.48 2869.39c29.69,-30.43 59.39,-60.87 89.08,-91.3 188.55,175.19 377.1,350.37 565.65,525.56 -7.42,31.92 -14.85,63.84 -18.56,99.85 -3.71,36 -3.71,76.08 -3.71,116.17 -210.82,-216.76 -421.64,-433.52 -632.46,-650.28z"/>
  <circle class="fil6 str3" cx="11445.83" cy="706.14" r="161.11"/>
  <circle class="fil6 str3" cx="1642.01" cy="686.48" r="161.11"/>
  <path class="fil2 str12" d="M10954.29 1057.94c75.33,74.03 150.66,148.05 225.99,222.08"/>
  <path class="fil2 str13" d="M10767.27 1167.03c92.21,92.21 184.43,184.43 276.64,276.64"/>
  <path class="fil2 str1" d="M10584.15 1287.82c107.8,100 215.59,200.01 323.39,300.01"/>
  <path class="fil2 str1" d="M10420.5 1400.81c118.19,118.19 236.37,236.37 354.56,354.56"/>
  <path class="fil2 str1" d="M10264.65 1533.28c128.58,129.88 257.15,259.75 385.73,389.63"/>
  <path class="fil2 str12" d="M10104.9 1669.65c136.37,137.67 272.74,275.34 409.11,413.01"/>
  <path class="fil6 str3" d="M11276.67 502.6c29.76,-20.22 59.53,-40.43 91.82,-51.94 32.29,-11.52 67.11,-14.33 105.86,-11.8 38.75,2.52 81.43,10.39 116.81,28.92 35.38,18.53 63.46,47.74 84.52,71.33 21.06,23.58 35.1,41.55 44.09,70.19 8.98,28.64 12.91,67.95 11.51,104.74 -1.41,36.78 -8.14,71.03 -19.09,98.83 -10.95,27.8 -26.12,49.14 -37.35,62.06 -11.23,12.91 -18.54,17.41 -25.84,21.9 3.93,-12.92 7.87,-25.83 13.49,-42.96 5.61,-17.13 12.91,-38.47 16.84,-62.62 3.93,-24.15 4.49,-51.1 2.25,-76.37 -2.25,-25.28 -7.31,-48.86 -14.61,-69.92 -7.3,-21.06 -16.84,-39.59 -27.23,-55.03 -10.39,-15.45 -21.62,-27.8 -33.97,-39.03 -12.36,-11.24 -25.84,-21.34 -39.04,-30.32 -13.2,-8.99 -26.11,-16.86 -40.43,-22.47 -14.32,-5.62 -30.05,-8.99 -48.02,-12.36 -17.97,-3.37 -38.18,-6.74 -58.4,-8.14 -20.22,-1.41 -40.43,-0.84 -57.28,1.97 -16.85,2.8 -30.33,7.86 -44.09,12.07 -13.76,4.21 -27.8,7.58 -41.84,10.95z"/>
  <path class="fil6 str3" d="M1500.51 927.3c-28.07,-22.51 -56.13,-45.04 -76.61,-72.53 -20.49,-27.48 -33.4,-59.94 -42.35,-97.73 -8.97,-37.78 -13.97,-80.89 -6.64,-120.15 7.32,-39.26 27,-74.68 43.37,-101.74 16.36,-27.05 29.42,-45.75 54.16,-62.75 24.74,-16.99 61.17,-32.29 96.75,-41.75 35.57,-9.45 70.29,-13.07 100.08,-10.76 29.79,2.31 54.64,10.55 70.29,17.49 15.63,6.94 22.08,12.61 28.52,18.27 -13.51,0.04 -27.01,0.06 -45.03,-0.28 -18.02,-0.34 -40.57,-1.05 -64.81,2.28 -24.24,3.33 -50.16,10.71 -73.66,20.27 -23.51,9.57 -44.56,21.33 -62.55,34.49 -17.99,13.16 -32.91,27.72 -44.62,42.18 -11.72,14.47 -20.23,28.83 -27.34,43.93 -7.11,15.12 -12.81,30.97 -17.52,46.22 -4.72,15.26 -8.45,29.91 -9.61,45.25 -1.17,15.33 0.22,31.36 2.28,49.53 2.05,18.17 4.76,38.48 9.36,58.22 4.59,19.74 11.06,38.89 18.7,54.17 7.62,15.29 16.41,26.69 24.48,38.61 8.06,11.92 15.4,24.35 22.75,36.78z"/>
  <path class="fil2 str3" d="M1963.96 1298.58c74.7,-74.7 149.41,-149.4 224.11,-224.1"/>
  <path class="fil2 str3" d="M2089.46 1442.01c94.13,-91.14 188.25,-182.27 282.38,-273.41"/>
  <path class="fil2 str3" d="M2546.64 1289.62c-112.05,107.57 -224.11,215.15 -336.16,322.72"/>
  <path class="fil2 str3" d="M2712.48 1415.12c-118.03,119.52 -236.06,239.05 -354.09,358.57"/>
  <path class="fil2 str3" d="M2869.36 1540.62c-129.98,129.98 -259.97,259.97 -389.95,389.95"/>
  <path class="fil2 str3" d="M3035.2 1675.09c-135.96,135.96 -271.92,271.91 -407.88,407.87"/>
  <path class="fil1" d="M520.14 12254.84l-18 -31.73 -116.49 -38.83 -65.34 -71.03 -19.42 -77.66 -31.72 -25.09 -38.83 -91.4 0 -70.55 19.41 -27.94 -8.52 -31.73 8.52 -36.46 40.25 -77.66 -20.83 -59.66 20.83 -10.89 25.1 -70.56 -8.53 -76.71 45.94 -20.84 0 -51.14 25.09 0 13.74 -59.67 6.63 0 14.2 -19.41 -14.2 -10.89 14.2 0 5.21 -18 0 -62.5 84.76 -62.51 -8.05 -13.73 59.67 -81.92 5.21 0 20.83 -40.25 35.99 -11.37 0 -26.04 14.21 0 6.63 -33.62 65.34 -76.24 10.9 -6.63 8.52 -14.21c20.36,-20.36 30.78,-32.2 31.73,-35.99l14.2 -9.47 24.63 -44.51 97.54 -89.02 45.46 -55.41c7.58,-9.94 16.58,-18.46 27.94,-25.09l43.09 -24.63 5.21 -19.41 71.03 -25.1 -5.68 -12.31c21.31,-18.47 40.25,-29.83 56.82,-33.62l0 -5.21 19.42 -32.2 51.61 -19.42c44.99,-39.77 79.56,-63.45 102.29,-70.55l90.44 -32.2 26.05 11.36 30.78 -11.36 9.47 0 36.46 11.36 8.05 34.57 17.99 -8.52 8.53 8.52 0 16.57 19.41 53.99 10.89 205.51 -5.21 0 5.21 5.68 -30.3 141.59 -8.53 -17.05 -12.31 71.03 5.68 28.89 -25.09 33.62 -5.69 0 -2.84 22.25 11.37 40.25 -14.21 48.3 0 11.37 -34.57 0 -25.09 64.87 0 5.69 -5.21 0 -71.03 86.18 -26.05 10.89 -14.2 34.57 -26.05 -15.16 6.63 45.94 -12.31 19.41 -25.1 0 -5.21 -14.2 -59.66 -24.63 -26.52 -56.82 5.68 -45.93 9.47 -5.69 90.45 -243.87 62.03 -73.87 14.21 -83.34 -19.42 -146.79 -73.87 -20.84 -56.82 5.68 -37.41 20.84 -5.68 0 -27.47 38.83 -102.76 63.45 -40.25 -6.63 -30.3 40.25 5.21 5.21 0 5.68 -31.73 8.53 -5.68 26.04c-24.63,19.42 -54.93,44.99 -89.97,76.71 -3.79,7.11 -20.84,28.89 -51.62,64.88l0 5.68 -31.73 20.84 0 10.89 -33.14 14.2 0 19.42 -5.69 0 -65.34 97.07 8.52 10.89 -80.5 156.74 -30.31 11.37 0 13.73 16.58 0 -8.53 65.35 -19.41 37.41 -26.52 116.49 -27.46 25.09c-11.37,102.29 -18,158.64 -20.84,167.63l37.41 26.52 -8.52 95.66 19.41 91.39c26.99,40.72 42.15,78.6 45.93,113.65l40.25 -20.37 41.68 48.3 71.97 62.51c48.3,10.89 89.03,17.99 122.17,20.84l62.51 -34.57 19.42 26.04 122.17 -31.72 34.56 16.57 5.69 -10.89 181.83 -54.46 24.63 0 97.07 -64.87 87.61 -25.1 65.34 -26.52 85.71 -59.66 19.42 0 32.2 -24.63 127.38 -127.85 40.25 -26.52 -20.84 -70.55 -81.92 -40.26 5.68 -30.3 295.49 -130.7 8.52 -12.31c32.2,-9.47 51.14,-17.52 56.83,-25.1l19.41 0 20.84 51.15 16.57 0 -16.57 76.71 -20.84 0 -25.1 51.14 0 -10.89 -13.73 10.89 -15.15 48.77 -62.51 62.04 -5.68 -13.74c-29.83,43.57 -47.83,67.25 -53.98,70.56l0 19.89 -62.51 39.78c-6.63,8.52 -12.78,15.15 -19.41,19.41l-30.78 0 -9.47 17.05c-18.47,7.1 -33.15,25.1 -44.52,53.98l-88.55 43.09 -8.52 8.05 -5.68 -8.05c-17.52,8.05 -32.68,21.78 -45.46,40.25l-11.37 0 -19.41 24.63 -15.16 -5.21 -5.68 26.04 -51.14 5.68 -26.52 26.52c-8.05,8.05 -31.25,21.31 -69.13,38.83l0 5.21 -20.84 -5.21c-12.31,1.9 -26.99,9.95 -44.51,25.1l-5.68 31.73 -26.05 -5.69 -25.09 13.74 0 5.68 -51.15 0c-25.09,26.04 -50.19,44.04 -75.76,53.98 -25.57,10.42 -74.35,22.26 -146.32,36.46l0 18 -62.51 -5.68 0 25.09 -34.57 -5.68 -11.36 5.68 0 8.05 -38.83 0 -6.63 26.52 -76.71 8.52 -271.81 -48.77z"/>
  <path id="_1" class="fil1" d="M2792.63 10978.67c22.25,9.94 34.57,25.09 37.41,45.46 -25.1,26.99 -37.41,65.82 -37.41,116.49l0 20.83c-9.47,9.47 -14.21,18.47 -14.21,27.94 0,9.94 1.9,17.52 5.68,22.26l8.53 0 -8.53 40.25 -25.09 5.68 -10.89 45.46 -8.53 0c2.84,15.62 9.47,26.04 19.42,30.78 23.2,-1.9 60.14,-31.26 111.28,-87.61l5.21 5.69 141.58 -105.6 26.52 -5.68 65.35 -35.99 51.14 -15.16c32.2,-27.93 83.34,-42.61 152.48,-44.51 31.72,18.47 52.56,27.94 62.5,27.94 12.32,0 18,3.79 18,10.89 0,6.63 -4.26,25.57 -12.31,56.83l-59.67 35.04 -33.15 41.67 -97.54 45.46 -35.99 -16.58 -26.05 0 0 5.69c-66.77,25.57 -127.38,44.98 -181.83,56.82 -26.05,50.67 -73.4,117.44 -143.01,199.83 -69.14,82.4 -105.13,144.43 -107.02,187.05l-8.05 201.25 -53.98 90.44 5.21 125.96c-3.32,14.68 -9.95,30.31 -18.47,46.41 -9,16.1 -15.15,30.31 -18.94,42.62 -3.79,11.84 -16.58,35.04 -38.83,69.13l-24.63 7.11c-6.63,0.94 -31.72,18.46 -75.29,52.56l-70.55 0 -31.73 11.36 -45.93 -44.51c0,-26.99 9.47,-60.14 28.88,-99.91 19.42,-39.78 30.78,-69.14 33.62,-87.61 12.79,-91.39 36.94,-145.37 71.98,-161.95l13.73 -40.25 -5.21 -25.09 10.89 -20.84 -37.4 -62.51 0 -19.41 -8.53 -122.17c13.26,-9 21.78,-13.73 26.52,-13.73 7.58,0 15.63,4.73 25.1,13.73l53.98 -70.56 -8.52 -51.61 14.2 -59.67 -33.62 -26.04 0 -141.59 -51.14 40.25 -31.73 0 -45.93 30.31 -44.51 -10.89 -45.46 5.68c-25.1,0 -37.88,-8.53 -37.88,-25.1 0,-27.94 14.2,-60.61 41.67,-98.49 27.94,-37.89 70.08,-72.45 126.43,-104.18l0 -5.68 37.41 -5.21c14.68,-26.99 31.73,-40.25 51.14,-40.25 11.37,-4.74 23.68,-13.74 37.88,-26.99 13.74,-13.74 44.52,-31.73 92.82,-54.93l35.99 19.41 28.88 -13.73 43.09 -11.37 53.04 -28.88z"/>
  <path id="_2" class="fil1" d="M4150.72 10337.5l-8.52 0 -51.15 109.86 -5.68 -5.68c0,9.95 -4.73,18.94 -13.73,26.52l0 5.21c-20.36,32.67 -45.93,55.87 -76.71,71.03l-10.89 -5.68 0 10.89c-35.99,-4.27 -63.93,-12.32 -83.82,-22.73 -19.89,-10.42 -34.57,-27.94 -44.51,-52.57 -9.47,-24.62 -19.42,-50.19 -28.41,-77.18 13.73,-19.42 25.57,-30.78 34.56,-34.57l11.37 -37.41 45.46 -25.1 25.09 -53.98 45.94 -25.1 0 8.53 24.62 10.89c6.63,-3.79 10.89,-6.63 13.26,-9 2.37,-2.37 5.68,-5.21 9.94,-8.52 4.27,-2.84 15.16,-6.63 32.68,-10.89 17.52,-4.26 30.78,-9 40.25,-14.68l15.15 -8.05 10.89 0 20.84 31.72 0 44.52 5.68 40.25 -12.31 31.72zm-201.25 811.64l-5.69 0 -10.89 71.98 10.89 8.52 -19.41 51.14 -5.68 -9.47 0 20.84c0,40.72 -17.05,79.55 -51.14,116.49l10.89 0 0 25.09 -5.21 0 5.21 161.95 -10.89 19.42 5.68 26.51 -20.84 101.34 6.63 0c0,18.47 -4.26,44.99 -13.73,79.08l-12.31 37.41 -17.05 184.68c-3.31,18.47 -5.21,28.88 -5.21,31.72 0,16.58 7.1,25.1 22.26,25.1 17.52,0 36.93,-7.1 58.24,-20.83l89.97 -61.09c25.1,-30.78 43.1,-45.93 53.99,-45.93l8.52 0c15.63,-7.11 30.31,-19.89 44.51,-37.41 13.73,-17.52 24.15,-27.47 31.73,-30.31 13.73,-25.09 26.52,-37.41 37.41,-37.41 0.95,0 4.73,0.95 11.36,2.37 6.16,1.9 23.21,5.21 51.14,9.95l10.9 38.82c0,21.31 -7.11,45.46 -21.79,72.93 -15.15,26.99 -26.99,49.72 -35.51,67.71 -9,18 -28.41,32.68 -59.19,44.04l0 9.47 -19.42 -5.68 0 19.42 -12.31 0c-2.84,25.09 -15.63,39.3 -38.83,43.09l0 8.52 -37.41 0 0 5.68 -13.73 0 -37.88 24.63 -10.9 0 -19.41 26.52 -56.82 8.52c-5.69,10.89 -14.21,16.57 -26.52,16.57l-70.56 51.14 0 11.37 -34.57 -5.68 9.47 13.73 -45.93 11.36 0 6.63 -19.41 0 0 19.42 -20.84 14.2 -5.21 0 0 5.21c-12.31,34.1 -29.36,51.62 -51.61,51.62l-19.42 -5.68c-10.89,-34.1 -29.83,-68.67 -56.82,-102.76 7.57,-29.36 11.36,-51.14 11.36,-65.35l-11.36 -56.82 0 -30.31c0,-28.88 2.84,-58.24 8.52,-89.02l8.05 -35.99 0 -7.1 -2.37 0c-1.89,0 -2.84,-0.48 -2.84,-2.37 0,-1.9 4.26,-17.05 12.79,-44.51 9,-27.94 13.26,-63.93 13.26,-108.44 0,-10.89 -3.79,-17.52 -12.31,-19.42l17.99 -37.41 0 -167.63 22.26 -48.77c7.57,-14.68 14.68,-44.04 22.25,-87.13 11.84,-7.58 18.94,-14.68 20.84,-20.84l-11.37 -16.57 11.37 -27.94c-14.68,-28.89 -32.2,-43.09 -51.62,-43.09l-64.87 0c-7.58,7.57 -11.37,15.63 -11.37,25.1l-9.47 0c-4.73,25.09 -16.57,40.25 -36.46,45.93 -4.26,23.68 -17.99,38.35 -39.78,42.62l-25.09 40.25 -5.69 0c-6.63,20.36 -17.99,30.78 -34.56,30.78 -18.47,0 -33.62,-13.74 -44.99,-40.25 -11.84,-27 -17.52,-41.67 -17.52,-44.52 0,-3.78 1.89,-7.57 5.68,-12.31 9,-40.72 37.89,-74.34 85.71,-101.33l0 -11.37c20.36,-20.36 41.2,-35.51 62.51,-45.46l-12.31 0c39.77,-8.52 62.98,-28.88 70.08,-62.03 6.63,-32.67 31.25,-49.25 72.92,-49.25l16.58 5.68 34.57 -16.57 -20.84 0 31.73 -20.84 8.52 5.69 25.1 -30.78 6.63 5.68c11.36,-26.99 36.93,-40.25 76.71,-40.25 9,0 13.73,-3.79 13.73,-10.89l0 -14.21 10.89 0 -5.21 -5.21 45.46 -32.2c14.68,-26.04 38.36,-38.83 71.03,-38.83 20.37,0 37.89,5.69 53.04,16.58 15.63,11.36 23.2,22.25 23.2,33.62 0,11.84 -6.63,28.88 -19.41,51.14z"/>
  <path id="_3" class="fil1" d="M5199.6 10625.89c0,19.88 -15.63,53.98 -45.93,102.75l0 26.52 -30.78 70.56 0 45.93 -40.25 95.65 0 13.74c0,21.3 7.1,32.2 20.83,32.2l44.51 -13.74c28.89,16.58 52.57,24.63 72.45,24.63l62.04 0c57.3,-14.68 100.86,-22.26 130.69,-22.26 34.1,0 71.03,2.84 110.81,8.52l0 8.53 51.61 5.21 46.88 56.82 -44.51 57.3 -80.5 10.89 -79.08 43.09 -30.3 5.68c-10.42,1.42 -25.58,9.47 -45.94,23.21l-85.71 -9.47c-5.68,8.05 -31.25,13.26 -76.71,15.15l-142.53 5.68c-41.67,28.41 -69.14,50.2 -81.92,64.88l5.68 71.03 -19.42 31.72 -11.36 101.34 -34.57 45.93 -5.68 122.17 -34.57 19.42 -5.68 34.57 20.83 70.55 -26.04 256.66 56.82 220.66 64.88 -27.46c12.31,-25.1 35.99,-37.88 71.03,-37.88l26.04 0c45.46,-14.68 79.56,-40.25 102.76,-76.24l65.35 -19.42 -8.53 -6.63 19.42 -25.09c17.52,-12.79 28.88,-24.63 33.62,-34.57l40.25 -14.21 10.89 -24.62c13.73,0 20.84,-7.11 20.84,-20.84 16.57,-28.88 57.29,-52.56 122.17,-71.03 12.78,6.63 19.41,15.16 19.41,26.52 0,16.57 -8.52,48.3 -25.1,94.23 -16.57,46.41 -38.35,79.08 -65.34,98.5l-77.66 53.98 -23.21 32.2c-8.52,12.79 -19.41,22.26 -32.2,27.47l-49.72 22.25 -38.83 11.37 -83.34 74.82 -50.19 5.68 -63.46 51.14 -26.51 26.52c-4.74,4.26 -14.21,9.47 -29.36,15.15l-176.16 69.14 -40.25 5.68 -31.73 25.1 -65.34 -43.1 -19.42 -84.76 -20.83 -44.04c-5.21,-14.2 -23.68,-113.17 -55.41,-296.9 1.9,-6.63 10.42,-22.73 25.1,-48.78l0 -48.3 34.57 -14.2 41.67 -116.49 -13.73 -38.83c38.83,-7.58 59.66,-12.79 62.98,-16.57 3.31,-3.79 4.73,-8.05 4.73,-12.32 0,-3.79 -4.26,-15.15 -13.73,-33.62l45.93 -137.32 13.74 -122.17 62.5 -167.63c-3.79,-20.37 -17.05,-40.73 -40.25,-60.14 -23.2,-19.89 -45.93,-31.73 -68.19,-35.52l-53.98 33.15 -16.57 0c-27,0 -45.94,-3.32 -57.78,-9.47 -11.36,-6.63 -17.52,-9.95 -18.46,-9.95 -8.53,0 -18.94,4.74 -32.2,13.74 -8.05,19.41 -19.42,29.36 -33.15,29.36l-5.68 0c-4.26,1.89 -12.31,2.84 -23.21,2.84 -10.41,0 -28.41,-1.9 -54.45,-5.69 -18.47,-51.61 -27.47,-83.34 -27.47,-94.23 0,-11.36 6.63,-32.2 19.89,-62.51 13.73,-30.3 27.47,-45.93 42.62,-45.93l19.41 2.84 39.78 -10.89c26.05,-7.57 44.04,-11.36 54.46,-11.36l8.05 0c3.79,1.89 9.47,2.84 17.04,2.84 9,0 17.05,-1.9 24.15,-5.68 6.63,-3.32 15.16,-5.21 24.15,-5.21 11.84,0 20.37,1.89 25.1,5.21l51.14 -26.05 15.16 0c14.2,0 26.51,-1.89 37.88,-5.68 10.89,-3.79 24.62,-22.73 41.2,-56.82l30.78 5.68c2.84,-18.47 14.2,-45.94 34.56,-81.92 16.58,-0.95 25.1,-14.21 25.1,-40.25l0 -16.58 -8.52 10.89c14.2,-35.98 25.57,-63.45 34.57,-81.92l-8.05 -53.98 59.66 -113.65c16.57,-25.1 38.36,-40.25 65.35,-45.93 18.47,-27.47 49.25,-54.93 92.81,-81.92 43.57,-26.52 71.98,-40.25 85.71,-40.25 32.67,0 52.56,14.68 59.67,43.09l-39.78 79.08 0 70.56z"/>
  <path id="_4" class="fil1" d="M6444.05 10337.5l-8.52 0 -51.15 109.86 -5.68 -5.68c0,9.95 -4.73,18.94 -13.73,26.52l0 5.21c-20.36,32.67 -45.93,55.87 -76.71,71.03l-10.89 -5.68 0 10.89c-35.99,-4.27 -63.93,-12.32 -83.82,-22.73 -19.89,-10.42 -34.57,-27.94 -44.51,-52.57 -9.47,-24.62 -19.42,-50.19 -28.41,-77.18 13.73,-19.42 25.57,-30.78 34.56,-34.57l11.37 -37.41 45.46 -25.1 25.09 -53.98 45.94 -25.1 0 8.53 24.62 10.89c6.63,-3.79 10.89,-6.63 13.26,-9 2.37,-2.37 5.68,-5.21 9.94,-8.52 4.27,-2.84 15.16,-6.63 32.68,-10.89 17.52,-4.26 30.78,-9 40.25,-14.68l15.15 -8.05 10.89 0 20.84 31.72 0 44.52 5.68 40.25 -12.31 31.72zm-201.25 811.64l-5.69 0 -10.89 71.98 10.89 8.52 -19.41 51.14 -5.68 -9.47 0 20.84c0,40.72 -17.05,79.55 -51.14,116.49l10.89 0 0 25.09 -5.21 0 5.21 161.95 -10.89 19.42 5.68 26.51 -20.84 101.34 6.63 0c0,18.47 -4.26,44.99 -13.73,79.08l-12.31 37.41 -17.05 184.68c-3.31,18.47 -5.21,28.88 -5.21,31.72 0,16.58 7.1,25.1 22.26,25.1 17.52,0 36.93,-7.1 58.24,-20.83l89.97 -61.09c25.1,-30.78 43.1,-45.93 53.99,-45.93l8.52 0c15.63,-7.11 30.31,-19.89 44.51,-37.41 13.73,-17.52 24.15,-27.47 31.73,-30.31 13.73,-25.09 26.52,-37.41 37.41,-37.41 0.95,0 4.73,0.95 11.36,2.37 6.16,1.9 23.21,5.21 51.14,9.95l10.9 38.82c0,21.31 -7.11,45.46 -21.79,72.93 -15.15,26.99 -26.99,49.72 -35.51,67.71 -9,18 -28.41,32.68 -59.19,44.04l0 9.47 -19.42 -5.68 0 19.42 -12.31 0c-2.84,25.09 -15.63,39.3 -38.83,43.09l0 8.52 -37.41 0 0 5.68 -13.73 0 -37.88 24.63 -10.9 0 -19.41 26.52 -56.82 8.52c-5.69,10.89 -14.21,16.57 -26.52,16.57l-70.56 51.14 0 11.37 -34.57 -5.68 9.47 13.73 -45.93 11.36 0 6.63 -19.41 0 0 19.42 -20.84 14.2 -5.21 0 0 5.21c-12.31,34.1 -29.36,51.62 -51.61,51.62l-19.42 -5.68c-10.89,-34.1 -29.83,-68.67 -56.82,-102.76 7.57,-29.36 11.36,-51.14 11.36,-65.35l-11.36 -56.82 0 -30.31c0,-28.88 2.84,-58.24 8.52,-89.02l8.05 -35.99 0 -7.1 -2.37 0c-1.89,0 -2.84,-0.48 -2.84,-2.37 0,-1.9 4.26,-17.05 12.79,-44.51 9,-27.94 13.26,-63.93 13.26,-108.44 0,-10.89 -3.79,-17.52 -12.31,-19.42l17.99 -37.41 0 -167.63 22.26 -48.77c7.57,-14.68 14.68,-44.04 22.25,-87.13 11.84,-7.58 18.94,-14.68 20.84,-20.84l-11.37 -16.57 11.37 -27.94c-14.68,-28.89 -32.2,-43.09 -51.62,-43.09l-64.87 0c-7.58,7.57 -11.37,15.63 -11.37,25.1l-9.47 0c-4.73,25.09 -16.57,40.25 -36.46,45.93 -4.26,23.68 -17.99,38.35 -39.78,42.62l-25.09 40.25 -5.69 0c-6.63,20.36 -17.99,30.78 -34.56,30.78 -18.47,0 -33.62,-13.74 -44.99,-40.25 -11.84,-27 -17.52,-41.67 -17.52,-44.52 0,-3.78 1.89,-7.57 5.68,-12.31 9,-40.72 37.89,-74.34 85.71,-101.33l0 -11.37c20.36,-20.36 41.2,-35.51 62.51,-45.46l-12.31 0c39.77,-8.52 62.98,-28.88 70.08,-62.03 6.63,-32.67 31.25,-49.25 72.92,-49.25l16.58 5.68 34.57 -16.57 -20.84 0 31.73 -20.84 8.52 5.69 25.1 -30.78 6.63 5.68c11.36,-26.99 36.93,-40.25 76.71,-40.25 9,0 13.73,-3.79 13.73,-10.89l0 -14.21 10.89 0 -5.21 -5.21 45.46 -32.2c14.68,-26.04 38.36,-38.83 71.03,-38.83 20.37,0 37.89,5.69 53.04,16.58 15.63,11.36 23.2,22.25 23.2,33.62 0,11.84 -6.63,28.88 -19.41,51.14z"/>
  <path id="_5" class="fil1" d="M7745.32 12075.84l-44.51 56.83 -35.99 20.83c-12.31,6.63 -24.15,18.47 -35.99,35.99 -20.36,5.68 -33.62,12.31 -38.83,19.42l-32.2 0 -33.14 5.68 -162.43 80.5 -25.09 -8.52 -12.32 14.2 -44.51 10.89 -15.15 19.42 -25.1 8.52 -31.72 18 -30.78 5.21c-9,1.89 -27,11.36 -53.99,27.93l-31.72 0 -30.78 26.52 -8.05 -15.15 -5.69 26.04 -45.93 -5.68 -37.41 25.1 -19.41 0 -70.56 20.83 -56.82 -26.04 -29.36 -40.25 -107.97 -127.86 -5.68 -70.55 5.68 -25.1 -19.41 0 -8.53 -184.68 13.74 -74.82 -5.21 -19.41 0 -37.41 19.41 -33.15 -5.68 -65.34 37.41 -173.32 0 -26.52 13.73 20.84 -8.05 -45.93 40.25 -116.49 0 -19.42 51.14 -83.34c6.63,-30.3 14.68,-52.09 25.1,-64.87l0 -30.78 45.93 -51.14 51.15 -34.57 70.55 -76.71 105.6 -64.88 79.08 -26.52 62.51 0 56.82 -25.09 5.68 5.68 45.46 0 51.62 -16.57 33.14 0 26.52 10.89 0 19.41c11.84,10.42 26.99,17.05 45.93,20.84l0 11.36 44.04 19.42 0 34.56 -13.73 25.1c-10.42,8.05 -23.68,26.99 -40.25,56.83 -21.31,8.99 -40.25,19.88 -56.82,31.72l-25.1 -6.63 -19.42 40.25 -26.51 0 -24.63 10.89 0 51.15 -32.2 0 -45.46 8.52 -19.41 0 -45.93 31.73 -19.42 -5.21 -11.36 -26.52 0 -25.1 -13.74 -13.73 -51.14 5.68 -20.83 33.15 -5.69 20.84 -56.82 67.71 -19.41 65.35 -22.26 51.61 -12.31 62.04 -22.26 59.66 -13.73 187.52 24.62 176.16 0 16.57 20.84 26.52 0 64.87 56.82 102.76 11.37 -6.63 19.41 20.83 40.25 0 45.93 -32.2 0 11.37 24.63 -11.37 76.24 -13.73 45.93 -19.41 19.41 0 5.69 -5.69 45.46 5.69c25.09,-17.52 57.77,-32.68 97.07,-45.94l-5.21 -10.89 19.42 5.21c19.41,-6.16 43.09,-17.05 70.55,-31.73l26.52 5.69 5.68 -16.58 59.67 -11.36 35.99 -13.73 43.09 0 28.88 33.14 -12.31 43.09z"/>
  <path id="_6" class="fil1" d="M8948.1 10893.91c6.63,-1.9 24.62,-0.95 53.98,2.84 29.84,3.78 48.78,9.94 56.83,19.41l47.35 -11.36 26.52 2.84 19.41 37.41 -2.84 27.94c-18.47,14.67 -31.25,30.77 -37.41,48.77l-14.2 0 -15.16 16.57c-4.73,4.26 -24.15,12.31 -58.24,23.21l-2.84 258.07 22.25 133.54 2.85 137.32 20.83 167.63 87.6 238.66c15.63,17.53 26.05,31.26 31.73,41.68 46.41,-26.05 75.29,-38.83 87.13,-38.83 38.36,-43.57 62.51,-66.3 73.87,-68.19l0 -15.16 156.74 -133.06 2.84 -25.1c9.95,-1.89 29.84,-19.88 59.67,-53.98l51.14 10.89 27.94 62.51 -11.37 53.98 -27.46 -10.89 -14.21 30.31 -26.04 0c-10.42,27.93 -25.57,50.66 -45.93,68.18l0 15.16 -76.24 71.03 -14.21 35.99c-17.52,11.83 -46.88,27.93 -88.55,48.3l-10.89 20.83 -2.84 -6.63 -16.58 28.89 -37.88 11.36 -5.21 19.42 -19.41 0 8.05 20.83 -22.26 42.62 -20.83 5.68c1.89,14.68 -13.26,42.15 -45.46,81.93l-65.35 2.84 -13.73 40.25 -40.25 10.89c-30.78,-8.05 -54.93,-26.99 -73.4,-56.83l-93.29 -151.05 -88.55 -198.41 8.05 -73.4 -19.41 -65.35 14.2 -2.84c-26.99,-53.51 -40.25,-94.23 -40.25,-122.17l6.63 -51.14 -43.09 -26.52 -28.88 17.99 0 -6.63 -13.74 6.63 -37.41 95.66 -19.41 -8.05 -5.68 19.41 -13.74 -5.68 0 12.31 -5.68 0c-0.95,5.68 -14.2,29.36 -40.25,71.03l-11.36 -5.68 -8.05 59.66 -29.36 15.16c-19.42,10.41 -31.73,22.25 -37.41,35.99l-10.89 27.93 12.31 16.58 -31.73 11.36 -14.2 56.83 -23.21 12.31 6.63 11.36c-22.25,16.58 -40.25,27.47 -53.98,33.15l-12.31 20.84 -11.37 -15.16 -19.41 48.3 -16.58 0 -23.67 80.5 -24.63 8.53 -2.84 41.67 -40.25 0 -40.25 91.39 -19.41 13.73 -16.58 0 -5.68 26.52 -89.02 33.15 -92.82 2.84 -40.25 -263.76 16.58 -34.57 4.26 -27.46c0.95,-7.58 11.84,-35.52 33.15,-83.34l-5.21 -19.42c16.57,-37.88 27.46,-60.61 33.15,-68.19l-10.9 -5.21 26.05 -68.18 1.42 -26.52c0.95,-7.11 8.05,-24.15 20.83,-51.14 -7.57,-44.52 -14.68,-70.09 -22.25,-76.24l11.36 -19.42 35.99 5.21c21.31,-28.41 34.57,-43.56 40.25,-45.46l8.05 -25.1 5.68 0 -19.41 -28.88 16.57 -73.87 11.37 5.68c10.89,-28.89 17.99,-43.09 20.83,-43.09l-5.68 -35.99 38.83 -71.98 0 -19.41 -8.52 -17.05 56.82 -121.7 65.35 -89.02c22.25,-19.42 41.2,-41.2 56.82,-65.35l48.78 -19.41 65.34 -67.72 62.04 -37.41 37.41 0 30.78 -8.52 43.09 0 19.41 -31.73 40.25 2.84 40.25 0 0 -11.36c10.89,0.94 22.73,5.68 35.99,14.2l43.09 -17.04 31.73 8.52 8.52 -10.89 33.15 10.89 77.66 -19.41zm-357.99 219.24l-34.57 5.68 -43.09 -2.84 -13.73 24.63 0 20.83c-15.16,7.58 -31.26,14.21 -48.78,19.42l-25.09 62.5c-12.79,55.41 -20.37,83.82 -23.21,84.77l-14.2 0 -19.42 45.93 -9.47 38.83c-2.84,11.84 -12.31,21.78 -27.94,28.88l-13.73 48.78 -22.26 41.67c-8.05,15.62 -12.31,32.2 -12.31,49.72l0 11.36 -14.2 -11.36 0 22.26 -8.05 0 2.84 13.73 -11.37 23.67 -16.57 73.4 -28.89 59.67 -5.68 84.76 -8.52 12.31 -5.21 0 -5.68 25.1 10.89 11.36 -13.73 51.15 -5.69 0 5.69 16.57 -20.84 0 2.84 102.76 12.31 48.3 5.69 0 30.3 -28.89 80.5 -113.65 144.43 -190.36 43.09 -45.46 95.65 -155.32 99.92 -133.53 8.52 -28.89 -19.41 -25.1 35.99 -62.5 8.05 -46.88c0.94,-4.74 8.99,-17.05 23.67,-36.46l2.85 -110.81 -37.41 -2.84 -30.78 0 -40.25 -27.47 -8.05 13.74 -25.1 -19.42z"/>
  <path id="_7" class="fil1" d="M10589.37 11896.85c-7.1,0 -10.89,15.15 -10.89,45.93 -13.26,14.68 -25.1,29.36 -36.94,44.51 -11.36,14.68 -22.73,25.1 -34.09,31.73l-20.84 -5.68c-13.73,11.36 -21.78,24.62 -24.62,40.25 -1.9,3.79 -6.63,5.68 -14.21,5.68 -5.21,0 -9.47,-5.21 -12.31,-15.15 -10.89,22.73 -26.04,34.57 -44.51,34.57l0 13.73 -12.31 0 -13.74 -8.05c-17.04,11.84 -25.09,25.1 -25.09,40.25l-20.84 0 5.68 -8.53 -11.36 0 0 13.74 -19.42 25.09 -25.09 0 0 5.69 -15.16 0 0 9.47 -25.09 5.68 0 5.68 -10.9 -5.68 -5.68 10.89 -9.47 -10.89 -56.82 30.31 6.63 5.68 -12.31 0c-3.79,17.52 -14.68,26.52 -33.15,26.52 -5.68,12.78 -14.68,19.41 -26.52,19.41l-5.68 8.05c-21.31,0 -40.25,11.37 -57.3,33.62 -17.05,22.26 -31.73,34.57 -44.04,37.41l-9.47 -13.73 -5.68 13.73 15.15 5.68 -20.83 0 0 6.63c-16.58,3.79 -38.36,18.47 -64.88,44.52 -20.36,-5.69 -34.09,-13.74 -40.25,-25.1l-81.92 -162.42c7.58,-4.27 10.89,-11.84 10.89,-21.79 0,-14.2 -3.31,-28.41 -10.89,-43.09l5.68 0 -25.09 -71.03 13.73 0 -13.73 -16.57 5.68 -9.47c5.21,0 8.05,-2.84 8.05,-8.53l0 -8.05 11.36 5.21 0 -13.73 5.21 -19.41 29.36 -12.32 -8.52 -5.68c12.31,-19.41 19.41,-46.4 22.25,-80.5 2.84,-34.09 6.63,-54.46 11.37,-61.09l-14.21 -25.09 0 -34.57 14.21 -45.93 5.21 8.52c7.57,-10.89 14.68,-28.41 20.83,-51.61 -1.89,-2.37 -2.37,-8.05 -2.37,-16.58 0,-9 0,-14.68 0.95,-16.57l26.52 -26.05 -8.52 -30.78 19.88 -25.09 0 -9.47 8.05 9.47 0 -26.05 -8.05 -8.52 8.05 0 18 -51.14 0 -5.69 8.52 5.69 10.89 -81.92 5.69 0 28.88 -86.19 -9.47 5.69 45.93 -122.18 -5.68 0 45.93 -62.5 0 -33.15 10.9 -31.73c-7.58,-1.89 -15.63,-10.41 -25.1,-25.09l38.83 -65.35 0 -66.3 -24.63 -17.04c0,-4.27 3.32,-12.79 10.9,-24.63 -4.74,-16.1 -8.53,-25.57 -10.9,-29.36l-65.34 -95.65 -11.37 -5.68c-14.68,0 -27.94,4.73 -40.25,14.2l-8.05 0c-23.2,0 -40.25,-11.83 -51.61,-35.04l14.2 -45.46 -5.68 -16.57 37.41 -25.1 -5.68 -8.52c29.83,-6.16 50.66,-20.36 63.45,-41.67 12.31,-21.31 23.2,-37.89 32.67,-49.72 11.84,0 22.26,-1.9 31.26,-5.69 8.52,-3.78 15.15,-8.99 19.89,-16.1 4.73,-6.63 9.47,-13.73 13.73,-21.31l20.83 0 25.1 -38.82 0 -15.16 19.42 -16.57c11.83,0 20.83,-8.53 26.51,-25.1l-8.52 -15.15 13.73 6.63 19.42 -12.31c4.73,-13.74 13.73,-23.68 27.46,-29.84 13.26,-6.15 31.73,-16.1 55.88,-29.83 2.84,-10.89 13.73,-19.41 33.15,-25.1l0 -5.68 32.2 -5.21 0 -8.52 101.33 -56.83 0 -5.68c8.05,-13.73 19.89,-20.83 34.57,-20.83 25.1,0 37.41,24.62 37.41,73.87l0 28.88 -5.68 0 0 19.42c0,43.56 -17.05,73.87 -51.14,91.86 -1.9,12.79 -8.05,23.21 -18.95,31.73 -10.41,8.52 -26.04,25.1 -46.4,49.72l5.68 0c-14.68,9.47 -23.68,29.36 -26.99,59.67 -3.32,30.78 -9.47,58.24 -18.94,83.34l-5.21 -7.1 5.21 26.51 -5.21 0 -5.68 5.69 10.89 10.89c-9.95,9.47 -15.63,19.89 -16.58,31.25 -0.94,11.84 -2.84,17.52 -5.68,17.52l-3.79 0 -25.09 31.73c16.57,11.36 25.09,23.2 25.09,35.99 0,7.57 -5.68,12.31 -17.04,14.2l0 15.16 -8.05 -5.69 0 71.03 -25.1 0 -12.31 41.67 6.63 40.25 -15.16 31.73 0 8.05 -10.89 0 5.68 30.78 -11.36 -5.68 -19.42 122.17 -40.25 127.85 -10.89 51.15c-14.2,16.57 -20.83,29.83 -20.83,40.25 0,8.05 2.37,21.78 6.63,40.25 -31.26,67.24 -50.2,133.53 -56.83,198.41l-15.15 5.68 -5.68 8.05c-2.84,18.47 -7.11,32.67 -13.73,43.09l-5.69 125.01 14.21 42.62 -8.52 84.76 40.25 83.35c-16.58,0 -27.47,6.63 -31.73,19.41l-8.52 0 25.09 25.1 -5.68 20.83 15.15 0 25.1 24.63 25.1 -24.63 31.72 -14.2c9.48,-4.26 22.73,-15.16 40.25,-31.73l30.78 0 0 -11.36 5.21 5.68c27.94,-28.41 56.35,-44.04 86.19,-45.46l-5.69 -5.68 44.52 -13.74 0 -11.36c26.99,-5.68 47.35,-18.94 62.5,-40.25 33.15,-5.68 55.41,-18 66.3,-37.41l11.36 0 38.83 -27.94 31.73 65.35z"/>
  <path id="_8" class="fil1" d="M12877.48 10208.7l33.15 26.05 51.61 -5.21 56.83 64.87 0 25.1 34.56 31.73 19.42 65.34 -8.52 40.25 8.52 0 -19.42 217.83 -34.56 37.41 -56.83 27.94 -65.34 83.34 -56.83 13.73 -51.61 51.14 -70.56 -34.57 -19.42 -51.14 30.78 -36.46 -19.88 -45.46 33.62 -65.35c-5.69,-38.83 -12.32,-60.61 -19.42,-65.34l-71.03 8.52 -51.14 -19.41 -84.76 19.41 8.52 31.73 -59.66 50.19 -26.52 0 -268.97 167.63 -45.93 45.94 -34.57 5.68 -11.36 26.04 -70.56 19.42 5.68 14.2 -51.61 19.42 -116.49 88.55 -19.42 19.41 27.94 18c8.05,5.68 20.84,21.31 37.41,47.35l31.73 -19.41 19.41 25.09 51.62 -19.41 38.83 19.41 71.97 -5.68 223.51 5.68 20.84 26.05 59.66 0 45.46 33.62 81.92 -27.94 30.78 0 28.89 19.41 37.41 0 25.09 20.84 40.25 0 19.42 19.42 22.26 4.26c6.63,0.94 19.88,9.94 40.25,27.46l25.09 0c15.63,-9 33.62,-16.1 53.99,-20.83l37.41 35.04 19.41 35.99 110.81 71.97 108.44 95.66 -25.1 45.93 44.51 40.25 -30.78 95.65 -8.05 91.4 -29.36 47.35c-9,15.63 -20.36,42.62 -33.15,80.5l-59.66 31.73 -12.31 33.62 -238.66 161.95 -44.52 -8.05 -5.68 25.09 -259.49 85.71 -38.83 30.78 -77.66 0 -19.42 19.42 -40.25 0 -16.57 20.83 -40.25 -14.2 -110.81 38.83 -5.68 -5.21 -51.14 5.21 -90.45 20.83 -153.9 -15.15 -70.55 20.83 -90.45 -20.83 -17.99 -1.42 -18 -1.42 -15.15 -1.42c-3.79,-0.95 -12.78,-5.69 -26.99,-15.16 -14.21,-8.99 -26.99,-17.52 -38.36,-25.09l-51.14 -71.98 5.68 -95.65 24.63 -5.69 26.52 -26.04 38.83 -19.89c15.62,-19.41 37.4,-38.36 65.34,-56.82l148.22 0 0 45.93 -5.68 16.57 19.41 19.42 -45.46 43.09c-5.68,5.68 -14.2,21.78 -25.1,48.77l10.9 24.63 71.03 32.2 20.83 -32.2 51.14 -10.89 71.03 16.57 84.29 8.52 51.62 -25.09 45.46 0 62.5 -13.74 25.1 -14.2 51.14 0 35.04 -6.63 119.33 -47.36 38.83 -8.52 30.31 -17.99c8.52,-5.21 34.09,-11.84 77.66,-19.42l20.83 -19.41 19.42 5.68 116.49 -65.35 30.78 -63.45 59.66 -17.05 -2.84 -35.99 23.68 -31.72 -11.37 -11.37 30.78 -79.08 -5.68 -31.73 16.57 -45.93 -33.14 -64.87 13.73 -51.62 -34.57 -76.24 -33.62 -13.73c-12.78,-28.88 -27.94,-50.67 -45.46,-65.35l-71.03 13.74 -21.78 -51.15c-2.84,-5.68 -14.68,-17.04 -35.04,-34.56 -21.31,-3.79 -44.51,-12.32 -70.56,-25.1l-45.93 45.93 -19.42 -20.83 -71.97 -16.58 -38.83 -40.25 -20.84 20.84 -35.99 -14.21 -26.51 25.1 -59.67 -25.1 -25.1 38.83 -62.5 -30.3 -8.05 30.3 -51.62 0 -10.89 -19.41 -59.67 -10.89 -51.14 25.09 -61.08 -7.1c-6.63,-0.95 -23.21,-9.94 -50.2,-26.52l-31.72 14.21 -25.1 -14.21 -5.68 25.1 -79.08 8.52 -6.63 -14.2 -30.78 5.68 -51.14 -45.93 -13.74 -34.57c-3.79,-10.89 -14.68,-25.1 -32.2,-41.67 22.26,-17.52 41.2,-34.57 56.83,-51.14l14.2 0 26.05 -45.94 25.09 0 31.73 -35.99 71.03 -45.93 70.56 -64.87 40.25 -26.52 51.61 -19.41 45.46 -45.94 38.83 -19.41 43.09 -37.41 65.35 -38.83 59.67 -65.35 67.71 -37.41c11.37,-10.89 26.52,-19.89 45.93,-26.04l8.53 -19.42 82.87 -59.66 25.09 0 34.57 -43.09c28.89,-14.68 52.56,-29.84 71.03,-44.52l5.68 -20.83 30.31 -13.73 5.68 -11.37c42.62,-31.25 77.66,-60.14 105.13,-85.71l11.36 0 0 -11.36 20.84 0 5.21 -19.42 59.66 -19.41 108.44 -66.3z"/>
 </g>
</svg>
